<svg width="75" height="61" viewBox="0 0 75 61" fill="none" xmlns="http://www.w3.org/2000/svg">
<path d="M60.2655 7.03274C54.0649 1.53147 45.859 0.298614 38.205 0.298614H35.7763C27.8462 0.298614 19.585 1.64168 13.7342 7.03274C8.25101 13.2333 7 21.4578 7 29.1115V31.4669C7 39.3786 8.34312 47.7134 13.7342 53.5641C19.9715 59.0841 28.2327 60.2986 35.9235 60.2986H38.0577C46.0063 60.2986 54.378 58.9735 60.2655 53.5641C65.7855 47.3267 67 39.0474 67 31.3564V29.2222C67 21.2738 65.6749 12.9022 60.2655 7.03274Z" fill="#FBFCFD"/>
<path d="M36.9968 36.191C34.2591 36.191 32.0321 34.0138 32.0321 31.3373C32.0321 28.661 34.2591 26.4834 36.9968 26.4834C39.7342 26.4834 41.9615 28.661 41.9615 31.3373C41.9615 34.0138 39.7342 36.191 36.9968 36.191ZM33.6117 14.5751C33.6117 12.7502 35.1302 11.2657 36.9968 11.2657C38.8635 11.2657 40.3819 12.7502 40.3819 14.5751C40.3819 16.4 38.8635 17.8845 36.9968 17.8845C35.1302 17.8845 33.6117 16.4 33.6117 14.5751ZM23.9103 27.18C23.4556 28.5483 22.1627 29.4683 20.6927 29.4683C20.3383 29.4683 19.9857 29.4133 19.6446 29.3048C17.8695 28.7407 16.8947 26.8701 17.4717 25.1342C17.9266 23.7659 19.2202 22.8466 20.6906 22.8466C21.0445 22.8466 21.3961 22.9017 21.737 23.0097C22.5967 23.2828 23.2964 23.8673 23.7071 24.6553C24.1174 25.4434 24.1898 26.3398 23.9103 27.18ZM44.6696 31.3373C44.6696 27.5768 42.0486 24.5368 38.3519 24.0004V20.0294C40.9237 19.5166 42.6385 17.239 42.6385 14.5751C42.6385 11.5335 40.1077 9.05929 36.9968 9.05929C33.8859 9.05929 31.3551 11.5335 31.3551 14.5751C31.3551 17.239 33.5236 19.5166 36.0952 20.0294V24.0004C33.579 24.3655 31.2347 25.8501 30.1363 27.9979L26.2978 26.7784C26.4235 25.7124 26.2277 24.6333 25.7178 23.6546C25.0338 22.3414 23.8674 21.3668 22.4344 20.9118C21.8683 20.7314 21.2816 20.6401 20.6906 20.6401C18.2394 20.6401 16.0833 22.1723 15.3253 24.4526C14.3639 27.3452 15.9891 30.4632 18.9473 31.4032C19.5141 31.5829 20.1012 31.6746 20.6927 31.6746C22.7581 31.6746 24.6106 30.583 25.5967 28.8754L29.4382 30.0957C29.3687 30.5004 29.324 30.9134 29.324 31.3373C29.324 35.4739 32.7658 38.8388 36.9968 38.8388C41.2276 38.8388 44.6696 35.4739 44.6696 31.3373ZM56.3183 27.6589C55.9078 28.4474 55.2085 29.0314 54.3477 29.3048C54.0068 29.4129 53.6548 29.468 53.3015 29.468C51.8312 29.468 50.5372 28.5483 50.0823 27.18C49.5059 25.4446 50.4813 23.5737 52.2562 23.0097C52.5975 22.9017 52.9495 22.8466 53.3037 22.8466C54.7732 22.8466 56.0671 23.7664 56.5221 25.1351C56.801 25.9749 56.7288 26.8713 56.3183 27.6589ZM58.6687 24.4531C57.91 22.1723 55.754 20.6401 53.3037 20.6401C52.7129 20.6401 52.1259 20.7314 51.5591 20.9118C48.9678 21.7348 47.4 24.229 47.6959 26.7792L46.1143 27.2818L46.8116 29.3802L48.3966 28.8762C49.3834 30.5833 51.2361 31.6743 53.3015 31.6743C53.8923 31.6743 54.4793 31.5829 55.0449 31.4032C56.4789 30.9479 57.6451 29.9739 58.3295 28.6606C59.013 27.3477 59.1334 25.8535 58.6687 24.4531ZM49.0635 47.5754C48.4817 47.9886 47.795 48.2073 47.0778 48.2073C45.9953 48.2073 44.9701 47.6975 44.3355 46.8432C43.2383 45.3674 43.5742 43.2929 45.0839 42.2199C45.6669 41.8061 46.3536 41.5876 47.0703 41.5876C48.1524 41.5876 49.1777 42.0977 49.8127 42.9525C50.9093 44.4288 50.5735 46.5032 49.0635 47.5754ZM47.0703 39.3811C46.2558 39.3811 45.4669 39.5542 44.7388 39.8793L43.7595 38.5618L41.9339 39.8587L42.9113 41.1741C41.1391 43.0674 40.9085 45.986 42.5098 48.1397C43.5677 49.5636 45.2749 50.4136 47.0778 50.4136C48.2749 50.4136 49.42 50.0492 50.3903 49.3602C52.9064 47.5734 53.4664 44.117 51.6385 41.6556C50.5804 40.2313 48.8723 39.3811 47.0703 39.3811ZM29.6577 46.8432C29.0226 47.698 27.9974 48.2081 26.9158 48.2081C26.1993 48.2081 25.5119 47.9889 24.9292 47.5751C23.4192 46.5027 23.0833 44.4288 24.1806 42.9525C24.8151 42.0981 25.8405 41.5883 26.9228 41.5883C27.6403 41.5883 28.327 41.8066 28.909 42.2204C30.419 43.2929 30.7547 45.3669 29.6577 46.8432ZM32.0587 39.8579L30.2331 38.5613L29.2539 39.8793C28.5259 39.5542 27.7369 39.382 26.9228 39.382C25.1203 39.382 23.4127 40.2322 22.3547 41.6559C20.5266 44.116 21.0864 47.5724 23.6026 49.3602C24.5736 50.0497 25.719 50.4142 26.9158 50.4142C28.7173 50.4142 30.4245 49.5644 31.4833 48.1402C33.0851 45.9849 32.8541 43.0661 31.0815 41.1733L32.0587 39.8579Z" fill="url(#paint0_linear_1_877)"/>
<defs>
<linearGradient id="paint0_linear_1_877" x1="51.3925" y1="16.7486" x2="22.1669" y2="48.0891" gradientUnits="userSpaceOnUse">
<stop stop-color="#00B5CB"/>
<stop offset="1" stop-color="#2370E1"/>
</linearGradient>
</defs>
</svg>
