<svg width="101" height="60" viewBox="0 0 101 60" fill="none" xmlns="http://www.w3.org/2000/svg">
<mask id="path-1-inside-1_1_685" fill="white">
<path d="M24 42C24 50.2843 30.7157 57 39 57V59C29.6112 59 22 51.3888 22 42H24Z"/>
<path d="M78 18C78 9.71573 71.2843 3 63 3V1C72.3888 1 80 8.61116 80 18H78Z"/>
<path d="M28 42C28 48.0751 32.9249 53 39 53V55C31.8203 55 26 49.1797 26 42H28Z"/>
<path d="M74 18C74 11.9249 69.0751 7 63 7V5C70.1797 5 76 10.8203 76 18H74Z"/>
<path d="M63 11C66.866 11 70 14.134 70 18H72C72 13.0294 67.9706 9 63 9V11Z"/>
<path d="M39 49C35.134 49 32 45.866 32 42H30C30 46.9706 34.0294 51 39 51V49Z"/>
</mask>
<path d="M39 57H41V55H39V57ZM24 42H26V40H24V42ZM63 3H61V5H63V3ZM78 18H76V20H78V18ZM39 59V61H41V59H39ZM22 42V40H20V42H22ZM63 1V-1H61V1H63ZM80 18V20H82V18H80ZM39 53H41V51H39V53ZM28 42H30V40H28V42ZM63 7H61V9H63V7ZM74 18H72V20H74V18ZM39 55V57H41V55H39ZM26 42V40H24V42H26ZM63 5V3H61V5H63ZM76 18V20H78V18H76ZM70 18H68V20H70V18ZM63 11H61V13H63V11ZM32 42H34V40H32V42ZM39 49H41V47H39V49ZM72 18V20H74V18H72ZM63 9V7H61V9H63ZM30 42V40H28V42H30ZM39 51V53H41V51H39ZM39 55C31.8203 55 26 49.1797 26 42H22C22 51.3888 29.6112 59 39 59V55ZM63 5C70.1797 5 76 10.8203 76 18H80C80 8.61116 72.3888 1 63 1V5ZM39 57C30.7157 57 24 50.2843 24 42H20C20 52.4934 28.5066 61 39 61V57ZM63 3C71.2843 3 78 9.71573 78 18H82C82 7.50659 73.4934 -1 63 -1V3ZM39 51C34.0294 51 30 46.9706 30 42H26C26 49.1797 31.8203 55 39 55V51ZM63 9C67.9706 9 72 13.0294 72 18H76C76 10.8203 70.1797 5 63 5V9ZM39 53C32.9249 53 28 48.0751 28 42H24C24 50.2843 30.7157 57 39 57V53ZM63 7C69.0751 7 74 11.9249 74 18H78C78 9.71573 71.2843 3 63 3V7ZM72 18C72 13.0294 67.9706 9 63 9V13C65.7614 13 68 15.2386 68 18H72ZM30 42C30 46.9706 34.0294 51 39 51V47C36.2386 47 34 44.7614 34 42H30ZM74 18C74 11.9249 69.0751 7 63 7V11C66.866 11 70 14.134 70 18H74ZM28 42C28 48.0751 32.9249 53 39 53V49C35.134 49 32 45.866 32 42H28ZM32 40H30V44H32V40ZM28 40H26V44H28V40ZM24 40H22V44H24V40ZM37 49V51H41V49H37ZM37 53V55H41V53H37ZM37 57V59H41V57H37ZM70 20H72V16H70V20ZM74 20H76V16H74V20ZM78 20H80V16H78V20ZM65 11V9H61V11H65ZM65 7V5H61V7H65ZM65 3V1H61V3H65Z" fill="#5FBAFF" mask="url(#path-1-inside-1_1_685)"/>
<path d="M41 16H61C63.2091 16 65 17.7909 65 20V40C65 42.2091 63.2091 44 61 44H41C38.7909 44 37 42.2091 37 40V20C37 17.7909 38.7909 16 41 16Z" stroke="#E83D43" stroke-width="2"/>
<circle cx="51" cy="30" r="5" stroke="#E83D43" stroke-width="2"/>
<circle cx="58.5" cy="22.5" r="1.5" fill="#E83D43"/>
</svg>
