<?xml version="1.0" ?><svg height="128" id="svg8" version="1.1" viewBox="0 0 33.866666 33.866668" width="128" xmlns="http://www.w3.org/2000/svg" xmlns:cc="http://creativecommons.org/ns#" xmlns:dc="http://purl.org/dc/elements/1.1/" xmlns:inkscape="http://www.inkscape.org/namespaces/inkscape" xmlns:rdf="http://www.w3.org/1999/02/22-rdf-syntax-ns#" xmlns:sodipodi="http://sodipodi.sourceforge.net/DTD/sodipodi-0.dtd" xmlns:svg="http://www.w3.org/2000/svg" xmlns:xlink="http://www.w3.org/1999/xlink"><defs id="defs2"><linearGradient id="linearGradient2202"><stop id="stop2198" offset="0" style="stop-color:#f6f600;stop-opacity:1;"/><stop id="stop2200" offset="1" style="stop-color:#f69134;stop-opacity:1"/></linearGradient><linearGradient gradientTransform="matrix(0.39352029,0,0,0.39352035,-185.27183,93.82285)" gradientUnits="userSpaceOnUse" id="linearGradient3363" x1="12.262755" x2="12.262755" xlink:href="#linearGradient2202" y1="9.0164375" y2="14.680936"/><clipPath clipPathUnits="userSpaceOnUse" id="clipPath3457"><rect height="58.93293" id="rect3459" rx="2.6458333" ry="2.6458333" style="fill:#1a1a1a;stroke-width:0.264583;stroke-linecap:square;stroke-dasharray:0.264583, 1.05833;paint-order:fill markers stroke" width="61.739258" x="-262.11121" y="114.49826"/></clipPath></defs><g id="layer1"><path d="M 30.589844 8.9980469 C 18.714643 8.9980469 8.9980469 18.714643 8.9980469 30.589844 L 8.9980469 97.412109 C 8.9980469 109.28731 18.714643 119.00391 30.589844 119.00391 L 97.412109 119.00391 C 109.28731 119.00391 119.00391 109.28731 119.00391 97.412109 L 119.00391 30.589844 C 119.00391 18.714643 109.28731 8.9980469 97.412109 8.9980469 L 30.589844 8.9980469 z M 30.589844 19.001953 L 97.412109 19.001953 C 103.92029 19.001953 109.00195 24.081664 109.00195 30.589844 L 109.00195 97.412109 C 109.00195 103.92029 103.92029 109.00195 97.412109 109.00195 L 30.589844 109.00195 C 24.081664 109.00195 19.001953 103.92029 19.001953 97.412109 L 19.001953 30.589844 C 19.001953 24.081664 24.081664 19.001953 30.589844 19.001953 z M 96.634766 29.595703 A 5.0000003 4.9999998 51.67337 0 0 93.494141 30.673828 A 5.0000003 4.9999998 51.67337 0 0 92.673828 37.697266 A 5.0000003 4.9999998 51.67337 0 0 99.697266 38.517578 A 5.0000003 4.9999998 51.67337 0 0 100.51758 31.494141 A 5.0000003 4.9999998 51.67337 0 0 96.634766 29.595703 z M 63.75 33.742188 C 46.820551 33.742188 32.990234 47.574461 32.990234 64.503906 C 32.990234 81.433351 46.820551 95.263672 63.75 95.263672 C 80.679445 95.263672 94.509766 81.433351 94.509766 64.503906 C 94.509766 47.574461 80.679445 33.742187 63.75 33.742188 z M 63.75 43.738281 C 75.275042 43.738281 84.507812 52.978861 84.507812 64.503906 C 84.507812 76.028952 75.275042 85.261719 63.75 85.261719 C 52.224954 85.261719 42.992188 76.028952 42.992188 64.503906 C 42.992188 52.978861 52.224954 43.738281 63.75 43.738281 z " id="rect3857" style="color:#2ABE80;font-style:normal;font-variant:normal;font-weight:normal;font-stretch:normal;font-size:medium;line-height:normal;font-family:sans-serif;font-variant-ligatures:normal;font-variant-position:normal;font-variant-caps:normal;font-variant-numeric:normal;font-variant-alternates:normal;font-variant-east-asian:normal;font-feature-settings:normal;font-variation-settings:normal;text-indent:0;text-align:start;text-decoration:none;text-decoration-line:none;text-decoration-style:solid;text-decoration-color:#2ABE80;letter-spacing:normal;word-spacing:normal;text-transform:none;writing-mode:lr-tb;direction:ltr;text-orientation:mixed;dominant-baseline:auto;baseline-shift:baseline;text-anchor:start;white-space:normal;shape-padding:0;shape-margin:0;inline-size:0;clip-rule:nonzero;display:inline;overflow:visible;visibility:visible;opacity:1;isolation:auto;mix-blend-mode:normal;color-interpolation:sRGB;color-interpolation-filters:linearRGB;solid-color:#2ABE80;solid-opacity:1;vector-effect:none;fill:#2ABE80;fill-opacity:1;fill-rule:nonzero;stroke:none;stroke-width:3.77953;stroke-linecap:square;stroke-linejoin:miter;stroke-miterlimit:4;stroke-dasharray:none;stroke-dashoffset:0;stroke-opacity:1;paint-order:fill markers stroke;color-rendering:auto;image-rendering:auto;shape-rendering:auto;text-rendering:auto;enable-background:accumulate;stop-color:#2ABE80;stop-opacity:1" transform="scale(0.26458333)"/></g></svg>