<?xml version="1.0" ?><!DOCTYPE svg  PUBLIC '-//W3C//DTD SVG 1.1//EN'  'http://www.w3.org/Graphics/SVG/1.1/DTD/svg11.dtd'><svg height="512px" style="enable-background:new 0 0 512 512;" version="1.1" viewBox="0 0 512 512" width="512px" xml:space="preserve" xmlns="http://www.w3.org/2000/svg" xmlns:xlink="http://www.w3.org/1999/xlink"><g id="_x35_9-odnoklassniki"><g><g><g><path d="M256,255.996c65.789,0,119.301-53.648,119.301-119.627C375.301,70.397,321.789,16.75,256,16.75      c-65.793,0-119.302,53.647-119.302,119.619C136.698,202.348,190.207,255.996,256,255.996L256,255.996z M256,76.557      c32.896,0,59.648,26.827,59.648,59.812c0,32.986-26.752,59.816-59.648,59.816c-32.898,0-59.654-26.83-59.654-59.816      C196.346,103.384,223.102,76.557,256,76.557L256,76.557z M256,76.557" style="fill:#2ABE80;"/><path d="M414.193,252.676c-11.662-11.696-30.516-11.696-42.174,0      c-63.945,64.116-168.037,64.116-232.011,0c-11.658-11.696-30.512-11.696-42.174,0c-11.662,11.69-11.662,30.596,0,42.319      c37.102,37.199,84.134,58.407,132.632,63.932l-85.031,85.265c-11.658,11.694-11.658,30.592,0,42.286      c11.664,11.696,30.51,11.696,42.173,0L256,417.906l68.391,68.571c5.818,5.832,13.447,8.769,21.084,8.769      s15.268-2.937,21.084-8.769c11.662-11.694,11.662-30.592,0-42.286l-85.031-85.265c48.496-5.524,95.531-26.732,132.633-63.932      C425.824,283.295,425.824,264.366,414.193,252.676L414.193,252.676z M414.193,252.676" style="fill:#2ABE80;"/></g></g></g></g><g id="Layer_1"/></svg>