<?xml version="1.0" encoding="UTF-8" standalone="no"?>
<svg
   enable-background="new 0 0 512 512"
   id="Layer_1"
   version="1.1"
   viewBox="0 0 502.86368 353.10468"
   xml:space="preserve"
   sodipodi:docname="27fb6533eda6ed9e9498aeea815ec9db.svg"
   width="502.86368"
   height="353.10468"
   xmlns:inkscape="http://www.inkscape.org/namespaces/inkscape"
   xmlns:sodipodi="http://sodipodi.sourceforge.net/DTD/sodipodi-0.dtd"
   xmlns="http://www.w3.org/2000/svg"
   xmlns:svg="http://www.w3.org/2000/svg"><defs
     id="defs9" /><sodipodi:namedview
     id="namedview7"
     pagecolor="#ffffff"
     bordercolor="#666666"
     borderopacity="1.0"
     inkscape:pageshadow="2"
     inkscape:pageopacity="0.0"
     inkscape:pagecheckerboard="0" /><g
     id="g4"
     transform="translate(-5.65,-74.048521)"><path
       d="m 256.4,74.2 c 22.7,0 45.3,-0.4 68,0.1 28.8,0.6 57.6,1.7 86.3,3 11.9,0.6 24,0.9 35.8,3.2 28.1,5.4 44.8,22.7 52.5,50 4.1,14.5 5.6,29.4 6.9,44.3 3.5,40.1 2.8,80.2 1.8,120.3 -0.6,23.7 -1.6,47.6 -7.6,70.8 -2.5,9.5 -5.4,19 -10.9,27.3 -10,15.1 -24.4,23.7 -42,26.9 -15.1,2.8 -30.4,3.1 -45.7,3.8 -28.3,1.3 -56.6,1.9 -84.9,2.6 -33.5,0.9 -67,0.7 -100.4,0.4 -27.1,-0.3 -54.3,-0.9 -81.4,-2 C 111.9,424 88.9,423.6 66.3,419.2 53.8,416.8 42.7,411.6 33.1,403 24.1,394.8 19.5,384.2 16.1,373 8.8,349 8.3,324.2 6.8,299.4 5.1,270.4 5.6,241.4 6.3,212.5 6.9,188.1 8,163.6 13.1,139.6 16.1,125.4 20.2,111.3 30.5,100.4 43.2,87 59.4,80.6 77.7,79.3 c 21.9,-1.5 43.9,-2.5 65.8,-3.4 37.6,-1.6 75.3,-2.1 112.9,-1.7 z m 83.1,171.2 c -0.4,-1.2 -1.5,-1.4 -2.3,-1.8 -23.5,-12.4 -47.1,-24.8 -70.7,-37.2 -18.7,-9.8 -37.4,-19.7 -56.1,-29.6 -5.2,-2.7 -5.3,-2.6 -5.3,3.4 0,43.1 0,86.2 0,129.4 0,0.8 0,1.7 0,2.5 -0.1,2.6 0.9,3.4 3.3,2.1 2.9,-1.6 5.8,-3.2 8.8,-4.8 39.4,-20.4 78.9,-40.9 118.3,-61.3 1.4,-0.8 3.2,-1.1 4,-2.7 z"
       fill="#2ABE80"
       id="path2" /></g></svg>
