<svg width="34" height="26" viewBox="0 0 34 26" fill="none" xmlns="http://www.w3.org/2000/svg">
<path d="M17.0002 2C20.416 2 23.4682 3.55699 25.4858 6H27.9565C25.6464 2.39169 21.6026 0 17.0002 0C9.95695 0 4.22196 5.60108 4.00643 12.592L1.70718 10.2927L0.292969 11.707L5.00007 16.4141L9.70718 11.707L8.29297 10.2927L6.00811 12.5776C6.23009 6.69822 11.0665 2 17.0002 2Z" fill="#004F50"/>
<path d="M8.51478 20H6.0441C8.35423 23.6083 12.398 26 17.0005 26C24.0436 26 29.7785 20.3991 29.9942 13.4083L32.2931 15.7073L33.7073 14.293L29.0002 9.58594L24.2931 14.293L25.7073 15.7073L27.9925 13.4221C27.7707 19.3016 22.9343 24 17.0005 24C13.5846 24 10.5324 22.443 8.51478 20Z" fill="#004F50"/>
</svg>
