<svg width="32" height="32" viewBox="0 0 32 32" xmlns="http://www.w3.org/2000/svg">
    <path d="M16 7.53846C18.6579 7.53846 21.0329 8.73615 22.6028 10.6154H24.5252C22.7277 7.83976 19.5812 6 16 6C10.5196 6 6.05718 10.3085 5.88948 15.6861L4.10041 13.9175L3 15.0054L6.66264 18.6262L10.3253 15.0054L9.22487 13.9175L7.447 15.6751C7.61973 11.1525 11.3829 7.53846 16 7.53846Z"
         />
    <path d="M9.39746 21.3846H7.475C9.27254 24.1602 12.4191 26 16.0002 26C21.4805 26 25.9429 21.6916 26.1108 16.3141L27.8996 18.0825L29 16.9946L25.3374 13.3738L21.6747 16.9946L22.7751 18.0825L24.5532 16.3247C24.3807 20.8474 20.6174 24.4615 16.0002 24.4615C13.3423 24.4615 10.9674 23.2639 9.39746 21.3846Z"
          />
</svg>