<svg width="25" height="27" viewBox="0 0 25 27" xmlns="http://www.w3.org/2000/svg">
<path d="M14.905 27H10.095C9.77437 27 9.49646 26.8875 9.26131 26.6625C9.02616 26.4375 8.8872 26.1562 8.84445 25.8188L8.45965 22.68C8.18175 22.5675 7.91966 22.4325 7.67339 22.275C7.42712 22.1175 7.18684 21.9488 6.95254 21.7688L4.16278 22.9837C3.86349 23.0962 3.56421 23.1075 3.26493 23.0175C2.96564 22.9275 2.73049 22.7362 2.55947 22.4438L0.186567 18.09C0.0155472 17.7975 -0.0378965 17.4825 0.026236 17.145C0.0903685 16.8075 0.2507 16.5375 0.50723 16.335L2.9122 14.4113C2.89082 14.2537 2.88013 14.1017 2.88013 13.955V13.0451C2.88013 12.8984 2.89082 12.7463 2.9122 12.5887L0.50723 10.665C0.2507 10.4625 0.0903685 10.1925 0.026236 9.855C-0.0378965 9.5175 0.0155472 9.2025 0.186567 8.91L2.55947 4.55625C2.70911 4.24125 2.93871 4.04415 3.24825 3.96495C3.5578 3.88575 3.86264 3.90285 4.16278 4.01625L6.95254 5.23125C7.18769 5.05125 7.43354 4.8825 7.69007 4.725C7.9466 4.5675 8.20312 4.4325 8.45965 4.32L8.84445 1.18125C8.8872 0.84375 9.02616 0.5625 9.26131 0.3375C9.49646 0.1125 9.77437 0 10.095 0H14.905C15.2256 0 15.5035 0.1125 15.7387 0.3375C15.9738 0.5625 16.1128 0.84375 16.1556 1.18125L16.5403 4.32C16.8183 4.4325 17.0803 4.5675 17.3266 4.725C17.5729 4.8825 17.8132 5.05125 18.0475 5.23125L20.8372 4.01625C21.1365 3.90375 21.4358 3.8925 21.7351 3.9825C22.0344 4.0725 22.2695 4.26375 22.4405 4.55625L24.8134 8.91C24.9845 9.2025 25.0379 9.5175 24.9738 9.855C24.9096 10.1925 24.7493 10.4625 24.4928 10.665L22.0878 12.5887C22.1092 12.7463 22.1199 12.8984 22.1199 13.0451V13.955C22.1199 14.1017 22.0985 14.2537 22.0557 14.4113L24.4607 16.335C24.7172 16.5375 24.8776 16.8075 24.9417 17.145C25.0058 17.4825 24.9524 17.7975 24.7814 18.09L22.4085 22.41C22.2374 22.7025 21.9967 22.8996 21.6863 23.0013C21.3759 23.103 21.0715 23.0971 20.7731 22.9837L18.0475 21.7688C17.8123 21.9488 17.5665 22.1175 17.3099 22.275C17.0534 22.4325 16.7969 22.5675 16.5403 22.68L16.1556 25.8188C16.1128 26.1562 15.9738 26.4375 15.7387 26.6625C15.5035 26.8875 15.2256 27 14.905 27ZM12.5641 18.225C13.804 18.225 14.8622 17.7638 15.7387 16.8413C16.6152 15.9188 17.0534 14.805 17.0534 13.5C17.0534 12.195 16.6152 11.0812 15.7387 10.1587C14.8622 9.23625 13.804 8.775 12.5641 8.775C11.3029 8.775 10.2391 9.23625 9.3729 10.1587C8.50669 11.0812 8.07401 12.195 8.07486 13.5C8.07486 14.805 8.50754 15.9188 9.3729 16.8413C10.2383 17.7638 11.302 18.225 12.5641 18.225Z" />
</svg>
