<svg width="174" height="174" viewBox="0 0 174 174" fill="none" xmlns="http://www.w3.org/2000/svg">
<path fill-rule="evenodd" clip-rule="evenodd" d="M167.113 47.4815C165.965 45.2489 162.582 44.4196 160.22 45.3127C152.497 48.1195 144.071 46.0782 138.646 40.0818C133.156 34.0217 132.007 24.9634 135.837 17.6274C137.05 15.331 136.284 12.4604 134.05 11.1208C128.305 7.54847 122.177 4.67788 115.858 2.50899C113.369 1.67971 110.688 2.89175 109.667 5.3158C106.667 12.6518 98.4329 18.0102 90.4542 17.6274C82.0925 17.1809 74.8798 11.5673 72.5181 3.52965C71.7522 0.978014 69.199 -0.489167 66.6458 0.148741C60.1352 1.67972 53.7522 3.9762 47.7523 6.91058C45.3906 8.05881 44.3693 10.8018 45.3267 13.2259C48.3905 20.8808 46.4118 29.7477 40.348 35.2975C34.4757 40.5921 24.8375 41.8042 17.88 38.1043C15.5822 36.8923 12.7099 37.6578 11.3694 39.8904C7.79498 45.6316 4.85881 51.8193 2.62478 58.1984C1.79499 60.6863 3.00775 63.3655 5.43327 64.3861C13.2205 67.5757 18.1354 75.2944 17.6886 83.651C17.3056 91.6248 11.7524 98.6418 3.51839 101.64C0.837548 102.533 -0.439035 105.021 0.135431 107.509C1.66734 114.079 4.02902 120.522 7.02901 126.582C8.17794 128.879 11.6247 129.58 14.0503 128.687C21.263 125.881 29.9438 127.858 35.497 133.918C41.0502 139.978 42.1353 149.037 38.3055 156.373C37.0927 158.669 37.8587 161.54 40.0927 162.879C45.7735 166.452 51.9012 169.322 58.2203 171.491C60.7097 172.32 63.4543 171.108 64.4118 168.684C67.4117 161.284 75.6458 155.99 83.6244 156.373C91.9861 156.755 99.1989 162.433 101.561 170.47C102.327 173.022 104.88 174.489 107.433 173.851C110.752 173.086 114.071 172.065 117.326 170.917C120.39 169.832 123.39 168.493 126.326 167.089C128.688 165.941 129.709 163.198 128.752 160.774C125.624 153.119 127.667 144.252 133.731 138.702C139.603 133.408 149.241 132.196 156.262 135.896C158.56 137.108 161.369 136.342 162.773 134.11C166.348 128.368 169.284 122.181 171.518 115.738C172.347 113.25 171.135 110.507 168.709 109.55C160.922 106.361 156.007 98.6418 156.39 90.349C156.773 82.5027 162.007 75.4219 169.411 72.7427L170.433 72.4238C172.922 71.7221 174.454 69.1067 173.879 66.555C172.411 59.9846 170.113 53.5417 167.113 47.4815ZM97.4116 115.1C81.9649 120.713 64.8586 112.676 59.2416 97.2384C53.6246 81.801 61.6671 64.7051 77.1138 59.0915C92.5606 53.4779 109.667 61.5155 115.284 76.9529C120.837 92.3903 112.858 109.55 97.4116 115.1Z" fill="url(#paint0_linear_2618_221)"/>
<defs>
<linearGradient id="paint0_linear_2618_221" x1="-0.574143" y1="103.895" x2="174.657" y2="70.0565" gradientUnits="userSpaceOnUse">
<stop stop-color="#6DB8F3"/>
<stop offset="0.996" stop-color="#B6DCF9"/>
</linearGradient>
</defs>
</svg>
