<svg width="24" height="24" viewBox="0 0 24 24" xmlns="http://www.w3.org/2000/svg">
<g>
<path d="M21.1667 16.3529C21.1667 15.1942 20.9296 13.1645 20.4689 12.094C20.0082 11.0234 19.333 10.0508 18.4818 9.23141C17.6306 8.41207 16.6201 7.76213 15.5079 7.31871C14.9661 7.10266 14.4052 6.9377 13.8333 6.82533M21.1667 16.3529H22C22.5523 16.3529 23 16.8007 23 17.3529V18C23 18.5523 22.5523 19 22 19H2C1.44772 19 1 18.5523 1 18V17.3529C1 16.8007 1.44772 16.3529 2 16.3529L2.83333 16.3529M21.1667 16.3529L2.83333 16.3529M2.83333 16.3529C2.83333 15.1942 3.07044 13.1645 3.5311 12.094C3.99177 11.0235 4.66698 10.0508 5.51819 9.23141C6.36939 8.41207 7.37992 7.76213 8.49207 7.31871C9.03394 7.10266 9.59476 6.9377 10.1667 6.82533M10.1667 6.82533V10.0588C10.1667 10.6111 10.6144 11.0588 11.1667 11.0588H12.8333C13.3856 11.0588 13.8333 10.6111 13.8333 10.0588L13.8333 6.82533M10.1667 6.82533V5.83333C10.1667 4.82081 10.9875 4 12 4V4C13.0125 4 13.8333 4.82081 13.8333 5.83333V6.82533"/>
</g>
</svg>
