<svg width="18" height="18" viewBox="0 0 18 18" fill="none" xmlns="http://www.w3.org/2000/svg">
<path d="M15.4638 6.16493L11.6052 10.0245C10.4123 11.2173 8.46997 11.2174 7.2768 10.0245C7.16293 9.91062 7.00555 9.86718 6.85848 9.89417C6.76776 9.91081 6.68096 9.95425 6.61072 10.0245C6.42662 10.2086 6.42664 10.5065 6.61075 10.6906C6.96587 11.0456 7.37157 11.3198 7.80481 11.5133C8.32384 11.7451 8.88238 11.8611 9.44084 11.8611C10.4654 11.8611 11.4907 11.4708 12.271 10.6906L16.1302 6.831C16.8834 6.07777 17.2984 5.07224 17.2984 4.00089C17.2984 2.92956 16.8834 1.92404 16.1302 1.1708C14.5701 -0.389938 12.0307 -0.390598 10.47 1.1708L7.51895 4.12181C7.33485 4.30591 7.33485 4.60379 7.51895 4.78789C7.70306 4.972 8.00093 4.972 8.18504 4.78789L11.1361 1.83687C11.7112 1.26169 12.4791 0.944963 13.2998 0.944963C14.121 0.944963 14.8886 1.26199 15.4638 1.83719C16.039 2.41239 16.356 3.18027 16.356 4.00121C16.356 4.82214 16.039 5.58972 15.4638 6.16493Z" fill="#7C76B7"/>
<path d="M9.3252 12.9759C9.14092 12.7916 8.84347 12.7924 8.65957 12.9758L6.16236 15.473C5.58716 16.0482 4.81928 16.3652 3.99834 16.3652C3.17742 16.3652 2.40983 16.0482 1.83428 15.473C0.641478 14.2801 0.641477 12.3381 1.83432 11.1449L5.46659 7.51266C6.65973 6.31984 8.60179 6.32043 9.79466 7.51269C9.97877 7.69677 10.2766 7.69676 10.4607 7.51266C10.6448 7.32856 10.6448 7.03071 10.4607 6.8466C8.90066 5.28585 6.36124 5.28517 4.80048 6.8466L1.1679 10.4792C0.414648 11.2324 0 12.238 0 13.3093C0 14.3806 0.414989 15.3862 1.16825 16.1391C1.92145 16.892 2.92696 17.3073 3.99802 17.3073C5.06967 17.3073 6.07522 16.8923 6.82815 16.139L9.3252 13.642C9.5093 13.4579 9.5093 13.16 9.3252 12.9759Z" fill="#7C76B7"/>
</svg>
