<svg width="24" height="24" viewBox="0 0 24 24" xmlns="http://www.w3.org/2000/svg">
<g>
<path d="M12.4282 15C14.0851 15 15.4282 13.6569 15.4282 12C15.4282 10.3431 14.0851 9 12.4282 9C10.7714 9 9.42822 10.3431 9.42822 12C9.42822 13.6569 10.7714 15 12.4282 15Z"/>
<path d="M14.1932 2.152C13.8262 2 13.3602 2 12.4282 2C11.4962 2 11.0302 2 10.6632 2.152C10.4204 2.25251 10.1997 2.3999 10.0139 2.58572C9.82808 2.77155 9.6807 2.99218 9.58019 3.235C9.48819 3.458 9.45118 3.719 9.43718 4.098C9.43067 4.37193 9.35479 4.63973 9.21663 4.87635C9.07846 5.11298 8.88254 5.31069 8.64718 5.451C8.40799 5.58477 8.13877 5.65567 7.86472 5.65707C7.59066 5.65847 7.32073 5.59032 7.08018 5.459C6.74418 5.281 6.50118 5.183 6.26018 5.151C5.7345 5.08187 5.20288 5.22431 4.78219 5.547C4.46819 5.79 4.23418 6.193 3.76818 7C3.30218 7.807 3.06818 8.21 3.01718 8.605C2.98282 8.86545 3.0001 9.13012 3.06805 9.38389C3.136 9.63767 3.25328 9.87556 3.41318 10.084C3.56118 10.276 3.76818 10.437 4.08918 10.639C4.56218 10.936 4.86619 11.442 4.86619 12C4.86619 12.558 4.56218 13.064 4.08918 13.36C3.76818 13.563 3.56018 13.724 3.41318 13.916C3.25328 14.1244 3.136 14.3623 3.06805 14.6161C3.0001 14.8699 2.98282 15.1345 3.01718 15.395C3.06918 15.789 3.30218 16.193 3.76718 17C4.23418 17.807 4.46719 18.21 4.78219 18.453C4.99062 18.6129 5.22852 18.7302 5.48229 18.7981C5.73606 18.8661 6.00073 18.8834 6.26119 18.849C6.50119 18.817 6.74418 18.719 7.08018 18.541C7.32073 18.4097 7.59066 18.3415 7.86472 18.3429C8.13877 18.3443 8.40799 18.4152 8.64718 18.549C9.13018 18.829 9.41718 19.344 9.43718 19.902C9.45118 20.282 9.48719 20.542 9.58019 20.765C9.6807 21.0078 9.82808 21.2284 10.0139 21.4143C10.1997 21.6001 10.4204 21.7475 10.6632 21.848C11.0302 22 11.4962 22 12.4282 22C13.3602 22 13.8262 22 14.1932 21.848C14.436 21.7475 14.6566 21.6001 14.8425 21.4143C15.0283 21.2284 15.1757 21.0078 15.2762 20.765C15.3682 20.542 15.4052 20.282 15.4192 19.902C15.4392 19.344 15.7262 18.828 16.2092 18.549C16.4484 18.4152 16.7176 18.3443 16.9917 18.3429C17.2657 18.3415 17.5356 18.4097 17.7762 18.541C18.1122 18.719 18.3552 18.817 18.5952 18.849C18.8556 18.8834 19.1203 18.8661 19.3741 18.7981C19.6278 18.7302 19.8657 18.6129 20.0742 18.453C20.3892 18.211 20.6222 17.807 21.0882 17C21.5542 16.193 21.7882 15.79 21.8392 15.395C21.8735 15.1345 21.8563 14.8699 21.7883 14.6161C21.7204 14.3623 21.6031 14.1244 21.4432 13.916C21.2952 13.724 21.0882 13.563 20.7672 13.361C20.5331 13.2184 20.339 13.0187 20.2032 12.7807C20.0673 12.5427 19.994 12.2741 19.9902 12C19.9902 11.442 20.2942 10.936 20.7672 10.64C21.0882 10.437 21.2962 10.276 21.4432 10.084C21.6031 9.87556 21.7204 9.63767 21.7883 9.38389C21.8563 9.13012 21.8735 8.86545 21.8392 8.605C21.7872 8.211 21.5542 7.807 21.0892 7C20.6222 6.193 20.3892 5.79 20.0742 5.547C19.8657 5.38709 19.6278 5.26981 19.3741 5.20187C19.1203 5.13392 18.8556 5.11664 18.5952 5.151C18.3552 5.183 18.1122 5.281 17.7752 5.459C17.5348 5.59014 17.265 5.6582 16.9912 5.6568C16.7173 5.6554 16.4483 5.58459 16.2092 5.451C15.9738 5.31069 15.7779 5.11298 15.6397 4.87635C15.5016 4.63973 15.4257 4.37193 15.4192 4.098C15.4052 3.718 15.3692 3.458 15.2762 3.235C15.1757 2.99218 15.0283 2.77155 14.8425 2.58572C14.6566 2.3999 14.436 2.25251 14.1932 2.152Z"/>
</g>
</svg>
