<svg width="361" height="43" viewBox="0 0 361 43" fill="none" xmlns="http://www.w3.org/2000/svg">
<path d="M0.333333 39.5C0.333333 40.9728 1.52724 42.1667 3 42.1667C4.47276 42.1667 5.66667 40.9728 5.66667 39.5C5.66667 38.0272 4.47276 36.8333 3 36.8333C1.52724 36.8333 0.333333 38.0272 0.333333 39.5ZM3 40H62V39H3V40ZM70.5 31.5V9H69.5V31.5H70.5ZM78 1.5H361V0.5H78V1.5ZM70.5 9C70.5 4.85787 73.8579 1.5 78 1.5V0.5C73.3056 0.5 69.5 4.30558 69.5 9H70.5ZM62 40C66.6944 40 70.5 36.1944 70.5 31.5H69.5C69.5 35.6421 66.1421 39 62 39V40Z" fill="#8E00FE"/>
</svg>
