<svg width="72" height="39" viewBox="0 0 72 39" fill="none" xmlns="http://www.w3.org/2000/svg">
<path d="M0.333333 36C0.333333 37.4728 1.52724 38.6667 3 38.6667C4.47276 38.6667 5.66667 37.4728 5.66667 36C5.66667 34.5272 4.47276 33.3333 3 33.3333C1.52724 33.3333 0.333333 34.5272 0.333333 36ZM3 36.5H12.9084V35.5H3V36.5ZM21.4084 28V9H20.4084V28H21.4084ZM28.9084 1.5H72V0.5H28.9084V1.5ZM21.4084 9C21.4084 4.85786 24.7663 1.5 28.9084 1.5V0.5C24.214 0.5 20.4084 4.30558 20.4084 9H21.4084ZM12.9084 36.5C17.6028 36.5 21.4084 32.6944 21.4084 28H20.4084C20.4084 32.1421 17.0505 35.5 12.9084 35.5V36.5Z" fill="#8E00FE"/>
</svg>
