<svg width="132" height="39" viewBox="0 0 132 39" fill="none" xmlns="http://www.w3.org/2000/svg">
<path d="M0.333333 36C0.333333 37.4728 1.52724 38.6667 3 38.6667C4.47276 38.6667 5.66667 37.4728 5.66667 36C5.66667 34.5272 4.47276 33.3333 3 33.3333C1.52724 33.3333 0.333333 34.5272 0.333333 36ZM44.4809 1V0.5V1ZM3 36.5H28.4809V35.5H3V36.5ZM36.9809 28V9H35.9809V28H36.9809ZM44.4809 1.5H132V0.5H44.4809V1.5ZM36.9809 9C36.9809 4.85786 40.3388 1.5 44.4809 1.5V0.5C39.7865 0.5 35.9809 4.30558 35.9809 9H36.9809ZM28.4809 36.5C33.1753 36.5 36.9809 32.6944 36.9809 28H35.9809C35.9809 32.1421 32.623 35.5 28.4809 35.5V36.5Z" fill="#8E00FE"/>
</svg>
