<svg width="187" height="39" viewBox="0 0 187 39" fill="none" xmlns="http://www.w3.org/2000/svg">
<path d="M0.333333 36C0.333333 37.4728 1.52724 38.6667 3 38.6667C4.47276 38.6667 5.66667 37.4728 5.66667 36C5.66667 34.5272 4.47276 33.3333 3 33.3333C1.52724 33.3333 0.333333 34.5272 0.333333 36ZM58.7557 1V1.5V1ZM3 36.5H42.7557V35.5H3V36.5ZM51.2557 28V9H50.2557V28H51.2557ZM58.7557 1.5H187V0.5H58.7557V1.5ZM51.2557 9C51.2557 4.85786 54.6136 1.5 58.7557 1.5V0.5C54.0613 0.5 50.2557 4.30558 50.2557 9H51.2557ZM42.7557 36.5C47.4501 36.5 51.2557 32.6944 51.2557 28H50.2557C50.2557 32.1421 46.8979 35.5 42.7557 35.5V36.5Z" fill="#8E00FE"/>
</svg>
