<svg width="265" height="39" viewBox="0 0 265 39" fill="none" xmlns="http://www.w3.org/2000/svg">
<path d="M0.333333 36C0.333333 37.4728 1.52724 38.6667 3 38.6667C4.47276 38.6667 5.66667 37.4728 5.66667 36C5.66667 34.5272 4.47276 33.3333 3 33.3333C1.52724 33.3333 0.333333 34.5272 0.333333 36ZM3 36.5H63V35.5H3V36.5ZM71.5 28V9H70.5V28H71.5ZM79 1.5H265V0.5H79V1.5ZM71.5 9C71.5 4.85786 74.8579 1.5 79 1.5V0.5C74.3056 0.5 70.5 4.30558 70.5 9H71.5ZM63 36.5C67.6944 36.5 71.5 32.6944 71.5 28H70.5C70.5 32.1421 67.1421 35.5 63 35.5V36.5Z" fill="#8E00FE"/>
</svg>
