<svg width="36" height="36" viewBox="0 0 36 36" fill="none" xmlns="http://www.w3.org/2000/svg">
<path d="M10.4453 0H25.5368C32.0921 0 36 3.906 36 10.458V25.524C36 32.094 32.0921 36 25.5368 36H10.4633C3.90801 36 6.21888e-05 32.094 6.21888e-05 25.542V10.458C-0.0179468 3.906 3.89 0 10.4453 0ZM14.7674 23.4C14.2452 23.922 14.2452 24.786 14.7674 25.308C15.0376 25.578 15.3797 25.704 15.7219 25.704C16.0641 25.704 16.4062 25.578 16.6764 25.308L23.0335 18.954C23.5558 18.432 23.5558 17.568 23.0335 17.046L16.6764 10.692C16.1541 10.17 15.2897 10.17 14.7674 10.692C14.2452 11.214 14.2452 12.078 14.7674 12.6L20.1701 18L14.7674 23.4Z" fill="currentColor"/>
</svg>
