<svg width="229" height="38" viewBox="0 0 229 38" fill="none" xmlns="http://www.w3.org/2000/svg">
<path opacity="0.5" d="M56 7.5C56.2761 7.5 56.5 7.27614 56.5 7C56.5 6.72386 56.2761 6.5 56 6.5L56 7.5ZM23.6464 37.3536C23.8417 37.5488 24.1583 37.5488 24.3536 37.3536L27.5355 34.1716C27.7308 33.9763 27.7308 33.6597 27.5355 33.4645C27.3403 33.2692 27.0237 33.2692 26.8284 33.4645L24 36.2929L21.1716 33.4645C20.9763 33.2692 20.6597 33.2692 20.4645 33.4645C20.2692 33.6597 20.2692 33.9763 20.4645 34.1716L23.6464 37.3536ZM56 6.5C45.8228 6.5 37.6885 9.51805 32.0953 14.8697C26.5001 20.2232 23.5 27.8624 23.5 37L24.5 37C24.5 28.0867 27.4212 20.726 32.7866 15.5922C38.1541 10.4565 46.0198 7.5 56 7.5L56 6.5Z" fill="#1D1D1B"/>
<path opacity="0.5" d="M81.898 1.2V11H80.876V2.096H74.674V11H73.652V1.2H81.898ZM91.4067 7.626H85.2467C85.3027 8.39133 85.5967 9.012 86.1287 9.488C86.6607 9.95467 87.3327 10.188 88.1447 10.188C88.6021 10.188 89.0221 10.1087 89.4047 9.95C89.7874 9.782 90.1187 9.53933 90.3987 9.222L90.9587 9.866C90.6321 10.258 90.2214 10.5567 89.7267 10.762C89.2414 10.9673 88.7047 11.07 88.1167 11.07C87.3607 11.07 86.6887 10.9113 86.1007 10.594C85.5221 10.2673 85.0694 9.81933 84.7427 9.25C84.4161 8.68067 84.2527 8.03667 84.2527 7.318C84.2527 6.59933 84.4067 5.95533 84.7147 5.386C85.0321 4.81667 85.4614 4.37333 86.0027 4.056C86.5534 3.73867 87.1694 3.58 87.8507 3.58C88.5321 3.58 89.1434 3.73867 89.6847 4.056C90.2261 4.37333 90.6507 4.81667 90.9587 5.386C91.2667 5.946 91.4207 6.59 91.4207 7.318L91.4067 7.626ZM87.8507 4.434C87.1414 4.434 86.5441 4.66267 86.0587 5.12C85.5827 5.568 85.3121 6.156 85.2467 6.884H90.4687C90.4034 6.156 90.1281 5.568 89.6427 5.12C89.1667 4.66267 88.5694 4.434 87.8507 4.434ZM97.415 3.58C98.1057 3.58 98.731 3.73867 99.291 4.056C99.851 4.364 100.29 4.80267 100.607 5.372C100.924 5.94133 101.083 6.59 101.083 7.318C101.083 8.05533 100.924 8.70867 100.607 9.278C100.29 9.84733 99.851 10.2907 99.291 10.608C98.7404 10.916 98.115 11.07 97.415 11.07C96.8177 11.07 96.2764 10.9487 95.791 10.706C95.315 10.454 94.923 10.09 94.615 9.614V13.716H93.621V3.636H94.573V5.092C94.8717 4.60667 95.2637 4.23333 95.749 3.972C96.2437 3.71067 96.799 3.58 97.415 3.58ZM97.345 10.188C97.8584 10.188 98.325 10.0713 98.745 9.838C99.165 9.59533 99.4917 9.25467 99.725 8.816C99.9677 8.37733 100.089 7.878 100.089 7.318C100.089 6.758 99.9677 6.26333 99.725 5.834C99.4917 5.39533 99.165 5.05467 98.745 4.812C98.325 4.56933 97.8584 4.448 97.345 4.448C96.8224 4.448 96.351 4.56933 95.931 4.812C95.5204 5.05467 95.1937 5.39533 94.951 5.834C94.7177 6.26333 94.601 6.758 94.601 7.318C94.601 7.878 94.7177 8.37733 94.951 8.816C95.1937 9.25467 95.5204 9.59533 95.931 9.838C96.351 10.0713 96.8224 10.188 97.345 10.188ZM109.659 7.626H103.499C103.555 8.39133 103.849 9.012 104.381 9.488C104.913 9.95467 105.585 10.188 106.397 10.188C106.854 10.188 107.274 10.1087 107.657 9.95C108.039 9.782 108.371 9.53933 108.651 9.222L109.211 9.866C108.884 10.258 108.473 10.5567 107.979 10.762C107.493 10.9673 106.957 11.07 106.369 11.07C105.613 11.07 104.941 10.9113 104.353 10.594C103.774 10.2673 103.321 9.81933 102.995 9.25C102.668 8.68067 102.505 8.03667 102.505 7.318C102.505 6.59933 102.659 5.95533 102.967 5.386C103.284 4.81667 103.713 4.37333 104.255 4.056C104.805 3.73867 105.421 3.58 106.103 3.58C106.784 3.58 107.395 3.73867 107.937 4.056C108.478 4.37333 108.903 4.81667 109.211 5.386C109.519 5.946 109.673 6.59 109.673 7.318L109.659 7.626ZM106.103 4.434C105.393 4.434 104.796 4.66267 104.311 5.12C103.835 5.568 103.564 6.156 103.499 6.884H108.721C108.655 6.156 108.38 5.568 107.895 5.12C107.419 4.66267 106.821 4.434 106.103 4.434ZM114.547 7.724H112.867V11H111.873V3.636H112.867V6.87H114.561L117.151 3.636H118.229L115.331 7.206L118.439 11H117.263L114.547 7.724ZM126.028 3.636V11H125.034V4.518H121.506L121.408 6.338C121.333 7.86867 121.156 9.04467 120.876 9.866C120.596 10.6873 120.096 11.098 119.378 11.098C119.182 11.098 118.944 11.0607 118.664 10.986L118.734 10.132C118.902 10.1693 119.018 10.188 119.084 10.188C119.466 10.188 119.756 10.0107 119.952 9.656C120.148 9.30133 120.278 8.86267 120.344 8.34C120.409 7.81733 120.465 7.12667 120.512 6.268L120.638 3.636H126.028ZM135.181 3.58C135.872 3.58 136.493 3.73867 137.043 4.056C137.603 4.37333 138.042 4.81667 138.359 5.386C138.677 5.95533 138.835 6.59933 138.835 7.318C138.835 8.03667 138.677 8.68067 138.359 9.25C138.042 9.81933 137.603 10.2673 137.043 10.594C136.493 10.9113 135.872 11.07 135.181 11.07C134.528 11.07 133.935 10.93 133.403 10.65C132.871 10.3607 132.437 9.964 132.101 9.46C131.775 8.956 131.583 8.37733 131.527 7.724H129.847V11H128.853V3.636H129.847V6.814H131.541C131.616 6.17933 131.817 5.61933 132.143 5.134C132.479 4.63933 132.909 4.25667 133.431 3.986C133.954 3.71533 134.537 3.58 135.181 3.58ZM135.181 10.202C135.685 10.202 136.138 10.0807 136.539 9.838C136.95 9.59533 137.272 9.25467 137.505 8.816C137.739 8.37733 137.855 7.878 137.855 7.318C137.855 6.758 137.739 6.25867 137.505 5.82C137.272 5.38133 136.95 5.04533 136.539 4.812C136.138 4.56933 135.685 4.448 135.181 4.448C134.677 4.448 134.22 4.56933 133.809 4.812C133.408 5.04533 133.091 5.38133 132.857 5.82C132.624 6.25867 132.507 6.758 132.507 7.318C132.507 7.878 132.624 8.37733 132.857 8.816C133.091 9.25467 133.408 9.59533 133.809 9.838C134.22 10.0807 134.677 10.202 135.181 10.202ZM146.525 3.636V11H145.531V7.934C144.681 8.30733 143.846 8.494 143.025 8.494C142.138 8.494 141.447 8.29333 140.953 7.892C140.458 7.48133 140.211 6.87 140.211 6.058V3.636H141.205V6.002C141.205 6.55267 141.382 6.97267 141.737 7.262C142.091 7.542 142.581 7.682 143.207 7.682C143.897 7.682 144.672 7.5 145.531 7.136V3.636H146.525ZM151.882 3.58C152.843 3.58 153.58 3.82267 154.094 4.308C154.607 4.784 154.864 5.49333 154.864 6.436V11H153.912V9.852C153.688 10.2347 153.356 10.5333 152.918 10.748C152.488 10.9627 151.975 11.07 151.378 11.07C150.556 11.07 149.903 10.874 149.418 10.482C148.932 10.09 148.69 9.572 148.69 8.928C148.69 8.30267 148.914 7.79867 149.362 7.416C149.819 7.03333 150.542 6.842 151.532 6.842H153.87V6.394C153.87 5.75933 153.692 5.27867 153.338 4.952C152.983 4.616 152.465 4.448 151.784 4.448C151.317 4.448 150.869 4.52733 150.44 4.686C150.01 4.83533 149.642 5.04533 149.334 5.316L148.886 4.574C149.259 4.25667 149.707 4.014 150.23 3.846C150.752 3.66867 151.303 3.58 151.882 3.58ZM151.532 10.286C152.092 10.286 152.572 10.16 152.974 9.908C153.375 9.64667 153.674 9.27333 153.87 8.788V7.584H151.56C150.3 7.584 149.67 8.02267 149.67 8.9C149.67 9.32933 149.833 9.67 150.16 9.922C150.486 10.1647 150.944 10.286 151.532 10.286ZM157.51 3.636H158.504V9.488L163.418 3.636H164.3V11H163.306V5.148L158.406 11H157.51V3.636ZM160.856 2.572C160.221 2.572 159.717 2.41333 159.344 2.096C158.97 1.77867 158.779 1.33067 158.77 0.751999H159.484C159.493 1.116 159.624 1.41 159.876 1.634C160.128 1.84867 160.454 1.956 160.856 1.956C161.257 1.956 161.584 1.84867 161.836 1.634C162.097 1.41 162.232 1.116 162.242 0.751999H162.956C162.946 1.33067 162.75 1.77867 162.368 2.096C161.994 2.41333 161.49 2.572 160.856 2.572ZM175.502 7.192C176.501 7.42533 177 8.02733 177 8.998C177 9.642 176.762 10.1367 176.286 10.482C175.81 10.8273 175.101 11 174.158 11H170.812V3.636H174.06C174.9 3.636 175.558 3.79933 176.034 4.126C176.51 4.45267 176.748 4.91933 176.748 5.526C176.748 5.92733 176.636 6.27267 176.412 6.562C176.198 6.842 175.894 7.052 175.502 7.192ZM171.778 6.912H173.99C174.56 6.912 174.994 6.80467 175.292 6.59C175.6 6.37533 175.754 6.06267 175.754 5.652C175.754 5.24133 175.6 4.93333 175.292 4.728C174.994 4.52267 174.56 4.42 173.99 4.42H171.778V6.912ZM174.116 10.216C174.751 10.216 175.227 10.1133 175.544 9.908C175.862 9.70267 176.02 9.38067 176.02 8.942C176.02 8.50333 175.876 8.18133 175.586 7.976C175.297 7.76133 174.84 7.654 174.214 7.654H171.778V10.216H174.116ZM182.004 7.724H180.324V11H179.33V3.636H180.324V6.87H182.018L184.608 3.636H185.686L182.788 7.206L185.896 11H184.72L182.004 7.724ZM193.485 3.636V11H192.491V4.518H188.963L188.865 6.338C188.79 7.86867 188.613 9.04467 188.333 9.866C188.053 10.6873 187.553 11.098 186.835 11.098C186.639 11.098 186.401 11.0607 186.121 10.986L186.191 10.132C186.359 10.1693 186.475 10.188 186.541 10.188C186.923 10.188 187.213 10.0107 187.409 9.656C187.605 9.30133 187.735 8.86267 187.801 8.34C187.866 7.81733 187.922 7.12667 187.969 6.268L188.095 3.636H193.485ZM198.844 3.58C199.806 3.58 200.543 3.82267 201.056 4.308C201.57 4.784 201.826 5.49333 201.826 6.436V11H200.874V9.852C200.65 10.2347 200.319 10.5333 199.88 10.748C199.451 10.9627 198.938 11.07 198.34 11.07C197.519 11.07 196.866 10.874 196.38 10.482C195.895 10.09 195.652 9.572 195.652 8.928C195.652 8.30267 195.876 7.79867 196.324 7.416C196.782 7.03333 197.505 6.842 198.494 6.842H200.832V6.394C200.832 5.75933 200.655 5.27867 200.3 4.952C199.946 4.616 199.428 4.448 198.746 4.448C198.28 4.448 197.832 4.52733 197.402 4.686C196.973 4.83533 196.604 5.04533 196.296 5.316L195.848 4.574C196.222 4.25667 196.67 4.014 197.192 3.846C197.715 3.66867 198.266 3.58 198.844 3.58ZM198.494 10.286C199.054 10.286 199.535 10.16 199.936 9.908C200.338 9.64667 200.636 9.27333 200.832 8.788V7.584H198.522C197.262 7.584 196.632 8.02267 196.632 8.9C196.632 9.32933 196.796 9.67 197.122 9.922C197.449 10.1647 197.906 10.286 198.494 10.286ZM211.655 10.132V12.778H210.717V11H204.123V12.778H203.185V10.132H203.605C204.099 10.104 204.435 9.74 204.613 9.04C204.79 8.34 204.911 7.36 204.977 6.1L205.075 3.636H210.507V10.132H211.655ZM205.887 6.156C205.84 7.20133 205.751 8.06467 205.621 8.746C205.49 9.418 205.257 9.88 204.921 10.132H209.513V4.518H205.971L205.887 6.156ZM216.266 7.724H214.586V11H213.592V3.636H214.586V6.87H216.28L218.87 3.636H219.948L217.05 7.206L220.158 11H218.982L216.266 7.724ZM221.727 3.636H222.721V9.488L227.635 3.636H228.517V11H227.523V5.148L222.623 11H221.727V3.636Z" fill="#1D1D1B"/>
</svg>
