<svg width="36" height="36" viewBox="0 0 36 36" fill="none" xmlns="http://www.w3.org/2000/svg">
<g clip-path="url(#clip0_24531_4394)">
<path d="M15.3507 12.2194C15.3507 13.6392 16.5854 14.7903 18.1085 14.7903C19.632 14.7903 20.8667 13.6392 20.8667 12.2194C20.8667 10.7995 19.632 9.64846 18.1085 9.64846C16.5854 9.64846 15.3507 10.7995 15.3507 12.2194Z" fill="#D2D5DD"/>
<path fill-rule="evenodd" clip-rule="evenodd" d="M12 3C7.02944 3 3 7.02944 3 12V24C3 28.9706 7.02944 33 12 33H24C28.9706 33 33 28.9706 33 24V12C33 7.02944 28.9706 3 24 3H12ZM11.4365 12.2193C11.4365 8.7845 14.4236 6 18.1085 6C21.7938 6 24.7809 8.7845 24.7809 12.2193C24.7809 15.6541 21.7938 18.4388 18.1085 18.4388C14.4236 18.4388 11.4365 15.6541 11.4365 12.2193ZM24.8209 21.6379C24.736 21.7011 23.1353 22.8802 20.4641 23.3874L24.4961 27.1122C25.2052 27.7721 25.2061 28.8428 24.4982 29.5037C23.7903 30.1646 22.6419 30.1656 21.9325 29.5056L18.018 25.9525L14.4627 29.4827C14.1069 29.8269 13.6321 30 13.1566 30C12.7035 30 12.2497 29.8428 11.8975 29.5263C11.1761 28.8781 11.1554 27.8075 11.8509 27.1352L15.6779 23.4071C12.932 22.9118 11.2651 21.702 11.1794 21.6379C10.3976 21.0536 10.2722 19.9893 10.8989 19.2606C11.5259 18.5321 12.6674 18.415 13.4492 18.9992C13.4658 19.0117 15.209 20.2324 18.018 20.2342C20.827 20.2324 22.5342 19.0117 22.5507 18.9992C23.3326 18.415 24.4744 18.5321 25.1011 19.2606C25.7278 19.9893 25.6024 21.0536 24.8209 21.6379Z" fill="#D2D5DD"/>
</g>
<defs>
<clipPath id="clip0_24531_4394">
<rect width="36" height="36" fill="white"/>
</clipPath>
</defs>
</svg>
