<svg width="36" height="36" viewBox="0 0 36 36" fill="none" xmlns="http://www.w3.org/2000/svg">
<path fill-rule="evenodd" clip-rule="evenodd" d="M3 12C3 7.02979 7.02979 3 12 3H24C28.9702 3 33 7.02979 33 12V24C33 28.9702 28.9702 33 24 33H12C7.02979 33 3 28.9702 3 24V12ZM26.0156 20.1709C26.5708 20.6667 27.1267 21.1633 27.6182 21.7192C27.8123 21.939 27.9998 22.1631 28.1653 22.4019C28.2524 22.5271 28.3337 22.656 28.407 22.79C28.5637 23.0771 28.5659 23.3789 28.459 23.6074C28.3586 23.8213 28.1631 23.9714 27.9089 23.9875L24.6313 23.9868C23.7854 24.0535 23.1116 23.7312 22.5439 23.1863C22.0906 22.7512 21.6702 22.2876 21.2336 21.8379C21.0549 21.6533 20.8674 21.4797 20.6433 21.3428C20.3943 21.1897 20.1628 21.1487 19.9629 21.2183C19.8047 21.2732 19.6655 21.3984 19.5527 21.5933C19.292 22.0408 19.2319 22.5366 19.207 23.0347C19.1719 23.7627 18.9382 23.9531 18.1633 23.9875C16.5066 24.0608 14.9348 23.8235 13.4736 23.0361C12.1846 22.3418 11.187 21.3625 10.3176 20.2529C8.625 18.0901 7.32861 15.7163 6.16406 13.2737C5.90186 12.7236 6.09375 12.4299 6.73755 12.4182C7.80688 12.3992 8.87695 12.4014 9.94629 12.4175C10.3813 12.4241 10.6692 12.6584 10.8369 13.0459C11.4148 14.3862 12.123 15.6614 13.0115 16.8435L13.1755 17.0581C13.3638 17.2976 13.5681 17.5239 13.8333 17.6953C14.2126 17.9407 14.502 17.8594 14.6814 17.4602C14.7957 17.2061 14.8455 16.9343 14.8704 16.6626C14.9553 15.731 14.9656 14.7993 14.8184 13.8713C14.7268 13.2905 14.3796 12.9155 13.7659 12.8057C13.4524 12.7493 13.4985 12.6401 13.6509 12.4717C13.9146 12.1809 14.1621 12.0007 14.6565 12.0007L18.3596 12C18.9426 12.1077 19.0737 12.3545 19.1528 12.9089L19.1565 16.7864C19.1492 17.001 19.2708 17.6367 19.6787 17.7766C20.0061 17.8784 20.2222 17.6309 20.4177 17.436C21.3054 16.5476 21.9382 15.4995 22.5051 14.4148C22.7549 13.9365 22.9709 13.4414 23.1804 12.9456C23.2537 12.7734 23.3452 12.6423 23.4683 12.5522C23.6067 12.4504 23.7847 12.4014 24.0176 12.4043L27.583 12.4087C27.6877 12.4087 27.7947 12.4094 27.8987 12.4263C28.2151 12.4775 28.4106 12.5691 28.4978 12.7251C28.5754 12.865 28.5659 13.0576 28.478 13.3191C28.1968 14.1533 27.6599 14.8542 27.1252 15.5515L27.0615 15.635C26.4653 16.4114 25.8303 17.1599 25.2407 17.9399C24.6987 18.6519 24.7412 19.0107 25.4143 19.6296C25.6128 19.812 25.8142 19.9915 26.0156 20.1709Z" fill="#D2D5DD"/>
</svg>
