<svg width="101" height="60" viewBox="0 0 101 60" fill="none" xmlns="http://www.w3.org/2000/svg">
<path d="M59.9414 30L45 38.3008V21.6992L59.9414 30Z" stroke="#319559" stroke-width="2"/>
<path fill-rule="evenodd" clip-rule="evenodd" d="M60.969 9.26687L67.2911 20.217C67.4094 20.4136 67.5242 20.6125 67.6355 20.8136L70.63 26.0001L72.7124 22.3933C70.6895 16.6189 66.4282 11.8966 60.969 9.26687ZM55.2698 7.39558C53.8862 7.13585 52.459 7 51 7C46.1907 7 41.7261 8.47611 38.0346 11H50.9999H57.3508L55.2698 7.39558ZM73.9362 28.2736L67.6318 39.1931C67.5229 39.3897 67.4106 39.5842 67.295 39.7765L64.2792 45H68.4361C71.9037 40.9729 74 35.7312 74 30C74 29.4193 73.9785 28.8435 73.9362 28.2736ZM63.9654 49H50.9999H44.6493L46.7303 52.6044C48.1139 52.8642 49.5411 53 51 53C55.8093 53 60.2739 51.5239 63.9654 49ZM41.0312 50.7332L34.7158 39.7947C34.5927 39.5904 34.4733 39.3836 34.3577 39.1744L31.3702 34L29.2877 37.607C31.3107 43.3813 35.572 48.1036 41.0312 50.7332ZM28.0638 31.7268L34.3586 20.824C34.4736 20.6159 34.5924 20.4101 34.7149 20.2068L37.7211 15H33.5639C30.0963 19.0271 28 24.2688 28 30C28 30.5809 28.0215 31.1567 28.0638 31.7268Z" fill="#7981FB"/>
</svg>
