<?xml version="1.0" encoding="utf-8"?><svg viewBox="0 0 1280 519" xmlns="http://www.w3.org/2000/svg" xmlns:xlink="http://www.w3.org/1999/xlink"><style>:root>svg{display:none}:root>svg:target{display:block}</style><svg fill="none" viewBox="0 0 34 26" id="arow-round" xmlns="http://www.w3.org/2000/svg"><path d="M17 2c3.416 0 6.468 1.557 8.486 4h2.47A12.99 12.99 0 0017 0C9.957 0 4.222 5.601 4.006 12.592l-2.299-2.3-1.414 1.415L5 16.414l4.707-4.707-1.414-1.414-2.285 2.285C6.23 6.698 11.066 2 17 2zM8.515 20h-2.47A12.99 12.99 0 0017 26c7.044 0 12.779-5.6 12.994-12.592l2.3 2.3 1.413-1.415L29 9.586l-4.707 4.707 1.414 1.414 2.285-2.285C27.771 19.302 22.934 24 17 24a10.978 10.978 0 01-8.485-4z" fill="#004F50"/></svg><svg viewBox="0 0 32 32" id="arow-round-black" xmlns="http://www.w3.org/2000/svg"><path d="M16 7.538a8.58 8.58 0 016.603 3.077h1.922A10.135 10.135 0 0016 6c-5.48 0-9.943 4.309-10.11 9.686L4.1 13.918 3 15.005l3.663 3.621 3.662-3.62-1.1-1.088-1.778 1.757C7.62 11.152 11.383 7.538 16 7.538zM9.397 21.385H7.475A10.136 10.136 0 0016 26c5.48 0 9.943-4.308 10.11-9.686l1.79 1.768 1.1-1.087-3.663-3.621-3.662 3.62 1.1 1.088 1.778-1.757c-.172 4.522-3.936 8.137-8.553 8.137a8.58 8.58 0 01-6.603-3.077z"/></svg><svg viewBox="0 0 24 24" id="arrow-top" xmlns="http://www.w3.org/2000/svg"><path fill-rule="evenodd" clip-rule="evenodd" d="M2.793 11.793a1 1 0 101.414 1.414L11 6.414V20a1 1 0 102 0V6.414l6.793 6.793a1 1 0 001.414-1.414l-8.5-8.5a1 1 0 00-1.414 0l-8.5 8.5z"/></svg><svg fill="none" viewBox="0 0 1280 493" id="bg-block" xmlns="http://www.w3.org/2000/svg"><g clip-path="url(#adclip0_15189_1294)" fill-rule="evenodd" clip-rule="evenodd"><path opacity=".5" d="M1269.56 535.37s-42.4 25.088-85.89 10.647c-43.49-14.442-69.96 18.709-114.74 15.034-60.34-4.951-87.174-46.858-70.743-87.036 28.063-68.629-73.697-108.527-67.875-167.813 6.914-70.399 170.078-17.274 192.598-68.551 9.68-22.054-4.07-58.069 52.03-71.392 67.27-15.978 161.1 82.408 206.82 103.014 45.72 20.606 18.27 63.482-23.38 104.606-46.63 46.053-29.56 70.709-40.82 104.831-11.57 35.068-48 56.66-48 56.66z" fill="url(#adpaint0_linear_15189_1294)" fill-opacity=".6"/><path d="M179.582-328.355s-82.62 131.288 64.47 202.201C391.14-55.242 400.708 54.647 271.849 108.818 142.992 162.989 22.994 10.925-165.95 99.88c-130.214 61.306-221.967-7.7-221.967-7.7l567.499-420.535z" fill="url(#adpaint1_linear_15189_1294)" fill-opacity=".2"/><path opacity=".2" d="M973.206 130.586s-12.015-6.236-2.609-15.002c7.652-7.132 25.745-10.104 30.553-.45 4.81 9.654-16.202 21.623-27.944 15.452z" fill="url(#adpaint2_linear_15189_1294)" fill-opacity=".3"/><path opacity=".2" d="M1052.47 143.056s-33.83-17.638-7.34-42.433c21.54-20.173 72.49-28.58 86.03-1.273 13.53 27.306-45.62 61.162-78.69 43.706z" fill="url(#adpaint3_linear_15189_1294)" fill-opacity=".3"/><path opacity=".2" d="M482.131 308.641s-15.493-8.196-3.364-19.717c9.867-9.373 33.198-13.279 39.396-.591s-20.89 28.419-36.032 20.308z" fill="url(#adpaint4_linear_15189_1294)" fill-opacity=".3"/><path opacity=".5" d="M-36.12 375.159s-11.117-46.841 27.651-68.527c38.768-21.685 9.99-62.405 35.927-92.079 34.949-39.984 100.077-31.718 142.421 6.416 72.327 65.138 170.667 18.399 241.931 61.469 84.622 51.142-59.511 133.199-6.209 182.975 22.925 21.409 74.457 35.186 64.353 84.121-12.118 58.685-179.72 61.364-227.251 80.606-47.532 19.242-87.986-28.564-119.491-85.383-35.282-63.63-74.211-67.575-111.456-98.03-38.278-31.3-47.876-71.568-47.876-71.568z" fill="url(#adpaint5_linear_15189_1294)" fill-opacity=".7"/></g><defs><linearGradient id="adpaint0_linear_15189_1294" x1="1149.62" y1="115" x2="1289.23" y2="459.622" gradientUnits="userSpaceOnUse"><stop stop-color="#FBE1FD"/><stop offset="1" stop-color="#0018FF"/></linearGradient><linearGradient id="adpaint1_linear_15189_1294" x1="222.644" y1="-338" x2="-20.37" y2="157.948" gradientUnits="userSpaceOnUse"><stop stop-color="#8550E9"/><stop offset="1" stop-color="#C8F9FD"/></linearGradient><linearGradient id="adpaint2_linear_15189_1294" x1="1001.85" y1="132.279" x2="1001.85" y2="109" gradientUnits="userSpaceOnUse"><stop stop-color="#FFAE00"/><stop offset="1" stop-color="#fff"/></linearGradient><linearGradient id="adpaint3_linear_15189_1294" x1="1133.13" y1="147.846" x2="1133.13" y2="82" gradientUnits="userSpaceOnUse"><stop stop-color="#FFAE00"/><stop offset="1" stop-color="#fff"/></linearGradient><linearGradient id="adpaint4_linear_15189_1294" x1="519.069" y1="310.866" x2="519.069" y2="280.271" gradientUnits="userSpaceOnUse"><stop stop-color="#FFAE00"/><stop offset="1" stop-color="#fff"/></linearGradient><linearGradient id="adpaint5_linear_15189_1294" x1="546.039" y1="565.023" x2="53.28" y2="579.658" gradientUnits="userSpaceOnUse"><stop stop-color="#FBE1FD"/><stop offset="1" stop-color="#6D32EA"/></linearGradient><clipPath id="adclip0_15189_1294"><path fill="#fff" transform="matrix(-1 0 0 1 1280 0)" d="M0 0h1280v493H0z"/></clipPath></defs></svg><svg fill="none" viewBox="0 0 376 519" id="bg-block-xs" xmlns="http://www.w3.org/2000/svg"><g clip-path="url(#aeclip0_2782_137)" fill-rule="evenodd" clip-rule="evenodd"><path opacity=".5" d="M365.559 548.37s-42.4 25.088-85.888 10.647c-43.489-14.442-69.964 18.709-114.742 15.034-60.338-4.951-87.173-46.858-70.742-87.036 28.066-68.629-73.697-108.527-67.875-167.813 6.914-70.399 170.08-17.274 192.596-68.551 9.684-22.054-4.066-58.069 52.03-71.392 67.273-15.978 161.101 82.408 206.824 103.014 45.723 20.606 18.263 63.482-23.379 104.606-46.634 46.053-29.563 70.709-40.823 104.831-11.572 35.068-48.001 56.66-48.001 56.66z" fill="url(#aepaint0_linear_2782_137)" fill-opacity=".6"/><path d="M76.976-98.696S47.405-22.962 119.77 24.47c72.365 47.433 83.887 113.502 28.018 141.524-55.867 28.023-121.003-67.038-202.305-20.251-56.031 32.245-102.776-12.163-102.776-12.163L76.976-98.696z" fill="url(#aepaint1_linear_2782_137)" fill-opacity=".2"/><path opacity=".2" d="M69.206 143.586s-12.015-6.236-2.609-15.002c7.652-7.132 25.745-10.104 30.552-.45 4.806 9.654-16.2 21.623-27.943 15.452z" fill="url(#aepaint2_linear_2782_137)" fill-opacity=".3"/><path opacity=".2" d="M148.474 156.056s-33.83-17.638-7.346-42.433c21.547-20.173 72.494-28.58 86.028-1.273 13.534 27.306-45.617 61.162-78.682 43.706z" fill="url(#aepaint3_linear_2782_137)" fill-opacity=".3"/></g><defs><linearGradient id="aepaint0_linear_2782_137" x1="245.619" y1="128" x2="385.228" y2="472.622" gradientUnits="userSpaceOnUse"><stop stop-color="#FBE1FD"/><stop offset="1" stop-color="#0018FF"/></linearGradient><linearGradient id="aepaint1_linear_2782_137" x1="96.193" y1="-103" x2="-61.214" y2="133.928" gradientUnits="userSpaceOnUse"><stop stop-color="#8550E9"/><stop offset="1" stop-color="#C8F9FD"/></linearGradient><linearGradient id="aepaint2_linear_2782_137" x1="97.852" y1="145.279" x2="97.852" y2="122" gradientUnits="userSpaceOnUse"><stop stop-color="#FFAE00"/><stop offset="1" stop-color="#fff"/></linearGradient><linearGradient id="aepaint3_linear_2782_137" x1="229.135" y1="160.846" x2="229.135" y2="95" gradientUnits="userSpaceOnUse"><stop stop-color="#FFAE00"/><stop offset="1" stop-color="#fff"/></linearGradient><clipPath id="aeclip0_2782_137"><path fill="#fff" transform="matrix(-1 0 0 1 376 0)" d="M0 0h376v519H0z"/></clipPath></defs></svg><svg viewBox="0 0 24 24" stroke-width="2" stroke="currentColor" fill="none" stroke-linecap="round" stroke-linejoin="round" id="btn" xmlns="http://www.w3.org/2000/svg"><path d="M4 6h16M10 12h10M6 18h14"/></svg><svg fill="none" viewBox="0 0 18 18" id="check_mark" xmlns="http://www.w3.org/2000/svg"><path d="M9 15.75a6.75 6.75 0 100-13.5 6.75 6.75 0 000 13.5z" stroke="#1D1D1B" stroke-width="1.5" stroke-miterlimit="10"/><path d="M12.094 7.313L7.969 11.25 5.906 9.281" stroke="#1D1D1B" stroke-width="1.5" stroke-linecap="round" stroke-linejoin="round"/></svg><svg fill="none" viewBox="0 0 18 18" id="check_mark-white" xmlns="http://www.w3.org/2000/svg"><path d="M9 15.75a6.75 6.75 0 100-13.5 6.75 6.75 0 000 13.5z" stroke="#fff" stroke-width="1.5" stroke-miterlimit="10"/><path d="M12.094 7.313L7.969 11.25 5.906 9.281" stroke="#fff" stroke-width="1.5" stroke-linecap="round" stroke-linejoin="round"/></svg><svg fill="none" viewBox="0 0 9 7" id="check_mark_xs" xmlns="http://www.w3.org/2000/svg"><path d="M7.355 1.375L3.23 5.313l-2.062-1.97" stroke="#1D1D1B" stroke-width="1.5" stroke-linecap="round" stroke-linejoin="round"/></svg><svg fill="none" viewBox="0 0 9 7" id="check_mark_xs-white" xmlns="http://www.w3.org/2000/svg"><path d="M7.355 1.375L3.23 5.313l-2.062-1.97" stroke="#fff" stroke-width="1.5" stroke-linecap="round" stroke-linejoin="round"/></svg><svg viewBox="0 0 32 32" id="close" xmlns="http://www.w3.org/2000/svg"><path d="M14.586 16L4.293 26.293l1.414 1.414L16 17.414l10.293 10.293 1.414-1.414L17.414 16 27.707 5.707l-1.414-1.414L16 14.586 5.707 4.293 4.293 5.707 14.586 16z"/></svg><svg fill="none" viewBox="0 0 28 28" id="close-2" xmlns="http://www.w3.org/2000/svg"><g clip-path="url(#alclip0_17595_1178)" stroke="#004F50" stroke-width="2" stroke-linejoin="round"><path d="M21.875 6.125l-15.75 15.75M21.875 21.875L6.125 6.125"/></g><defs><clipPath id="alclip0_17595_1178"><path fill="#004F50" d="M0 0h28v28H0z"/></clipPath></defs></svg><svg viewBox="0 0 25 27" id="cog" xmlns="http://www.w3.org/2000/svg"><path d="M14.905 27h-4.81c-.32 0-.599-.113-.834-.337a1.37 1.37 0 01-.417-.844L8.46 22.68a4.795 4.795 0 01-.787-.405 10.23 10.23 0 01-.72-.506l-2.79 1.215c-.3.112-.599.123-.898.033-.3-.09-.535-.28-.706-.573L.187 18.09a1.324 1.324 0 01-.16-.945c.063-.337.224-.607.48-.81l2.405-1.924a3.394 3.394 0 01-.032-.456v-.91c0-.147.01-.299.032-.456L.507 10.665a1.306 1.306 0 01-.48-.81 1.324 1.324 0 01.16-.945l2.372-4.354c.15-.315.38-.512.69-.591.309-.08.614-.062.914.051l2.79 1.215c.235-.18.48-.348.737-.506.257-.157.513-.292.77-.405l.384-3.139a1.37 1.37 0 01.417-.844C9.496.113 9.774 0 10.095 0h4.81c.32 0 .599.113.834.338.235.224.374.506.417.843l.384 3.139c.278.112.54.247.787.405.246.158.486.326.72.506l2.79-1.215c.3-.112.599-.123.898-.034.3.09.535.282.706.574l2.372 4.354c.172.293.225.607.16.945a1.306 1.306 0 01-.48.81l-2.405 1.924c.021.157.032.31.032.456v.91c0 .147-.021.299-.064.456l2.405 1.924c.256.203.417.473.48.81.065.338.011.652-.16.945l-2.372 4.32c-.172.293-.412.49-.723.591-.31.102-.614.096-.913-.017l-2.726-1.215c-.235.18-.48.349-.737.506a6.329 6.329 0 01-.77.405l-.384 3.139a1.37 1.37 0 01-.417.844 1.166 1.166 0 01-.834.337zm-2.34-8.775c1.239 0 2.297-.461 3.174-1.384.876-.922 1.314-2.036 1.314-3.341 0-1.305-.438-2.419-1.314-3.341-.877-.923-1.935-1.384-3.175-1.384-1.261 0-2.325.461-3.191 1.384-.866.922-1.299 2.036-1.298 3.341 0 1.305.433 2.419 1.298 3.341.865.923 1.929 1.384 3.191 1.384z"/></svg><svg fill="none" viewBox="0 0 32 32" id="exit-modal" xmlns="http://www.w3.org/2000/svg"><path d="M5 27l11-11m0 0L27 5M16 16L5 5m11 11l11 11" stroke="#004F50" stroke-width="2" stroke-linecap="round"/></svg><svg fill="none" viewBox="0 0 174 174" id="gear" xmlns="http://www.w3.org/2000/svg"><path fill-rule="evenodd" clip-rule="evenodd" d="M167.113 47.481c-1.148-2.232-4.531-3.061-6.893-2.168-7.723 2.806-16.149.765-21.574-5.231-5.49-6.06-6.639-15.119-2.809-22.455 1.213-2.296.447-5.167-1.787-6.506-5.745-3.573-11.873-6.443-18.192-8.612a4.985 4.985 0 00-6.191 2.807c-3 7.336-11.234 12.694-19.213 12.311-8.361-.446-15.574-6.06-17.936-14.097C71.752.978 69.2-.49 66.646.149A90.16 90.16 0 0047.752 6.91c-2.361 1.148-3.383 3.89-2.425 6.315 3.064 7.655 1.085 16.522-4.979 22.072-5.872 5.294-15.51 6.506-22.468 2.806-2.298-1.212-5.17-.446-6.51 1.786-3.575 5.742-6.511 11.93-8.745 18.308a4.98 4.98 0 002.808 6.188c7.787 3.19 12.702 10.908 12.256 19.265-.383 7.974-5.937 14.99-14.17 17.989-2.681.893-3.958 3.381-3.384 5.869 1.532 6.57 3.894 13.013 6.894 19.073 1.149 2.297 4.596 2.998 7.021 2.105 7.213-2.806 15.894-.829 21.447 5.231 5.553 6.06 6.638 15.119 2.809 22.455-1.213 2.296-.447 5.167 1.787 6.506 5.68 3.573 11.808 6.443 18.127 8.612 2.49.829 5.234-.383 6.192-2.807 3-7.4 11.234-12.694 19.212-12.311 8.362.382 15.575 6.06 17.937 14.097.766 2.552 3.319 4.019 5.872 3.381 3.319-.765 6.638-1.786 9.893-2.934 3.064-1.085 6.064-2.424 9-3.828 2.362-1.148 3.383-3.891 2.426-6.315-3.128-7.655-1.085-16.522 4.979-22.072 5.872-5.294 15.51-6.506 22.531-2.806 2.298 1.212 5.107.446 6.511-1.786a91.547 91.547 0 008.745-18.372c.829-2.488-.383-5.231-2.809-6.188-7.787-3.189-12.702-10.908-12.319-19.201.383-7.846 5.617-14.927 13.021-17.606l1.022-.32c2.489-.7 4.021-3.316 3.446-5.868-1.468-6.57-3.766-13.013-6.766-19.074zM97.412 115.1c-15.447 5.613-32.553-2.424-38.17-17.862-5.617-15.437 2.425-32.533 17.872-38.146 15.447-5.614 32.553 2.424 38.17 17.86 5.553 15.438-2.426 32.598-17.872 38.148z" fill="url(#aopaint0_linear_2618_221)"/><defs><linearGradient id="aopaint0_linear_2618_221" x1="-.574" y1="103.895" x2="174.657" y2="70.056" gradientUnits="userSpaceOnUse"><stop stop-color="#6DB8F3"/><stop offset=".996" stop-color="#B6DCF9"/></linearGradient></defs></svg><svg fill="#B6DCF9" viewBox="0 0 174 174" id="gear-drag" xmlns="http://www.w3.org/2000/svg"><path fill-rule="evenodd" clip-rule="evenodd" d="M167.113 47.481c-1.148-2.232-4.531-3.061-6.893-2.168-7.723 2.806-16.149.765-21.574-5.231-5.49-6.06-6.639-15.119-2.809-22.455 1.213-2.296.447-5.167-1.787-6.506-5.745-3.573-11.873-6.443-18.192-8.612a4.985 4.985 0 00-6.191 2.807c-3 7.336-11.234 12.694-19.213 12.311-8.361-.446-15.574-6.06-17.936-14.097C71.752.978 69.2-.49 66.646.149A90.16 90.16 0 0047.752 6.91c-2.361 1.148-3.383 3.89-2.425 6.315 3.064 7.655 1.085 16.522-4.979 22.072-5.872 5.294-15.51 6.506-22.468 2.806-2.298-1.212-5.17-.446-6.51 1.786-3.575 5.742-6.511 11.93-8.745 18.308a4.98 4.98 0 002.808 6.188c7.787 3.19 12.702 10.908 12.256 19.265-.383 7.974-5.937 14.99-14.17 17.989-2.681.893-3.958 3.381-3.384 5.869 1.532 6.57 3.894 13.013 6.894 19.073 1.149 2.297 4.596 2.998 7.021 2.105 7.213-2.806 15.894-.829 21.447 5.231 5.553 6.06 6.638 15.119 2.809 22.455-1.213 2.296-.447 5.167 1.787 6.506 5.68 3.573 11.808 6.443 18.127 8.612 2.49.829 5.234-.383 6.192-2.807 3-7.4 11.234-12.694 19.212-12.311 8.362.382 15.575 6.06 17.937 14.097.766 2.552 3.319 4.019 5.872 3.381 3.319-.765 6.638-1.786 9.893-2.934 3.064-1.085 6.064-2.424 9-3.828 2.362-1.148 3.383-3.891 2.426-6.315-3.128-7.655-1.085-16.522 4.979-22.072 5.872-5.294 15.51-6.506 22.531-2.806 2.298 1.212 5.107.446 6.511-1.786a91.547 91.547 0 008.745-18.372c.829-2.488-.383-5.231-2.809-6.188-7.787-3.189-12.702-10.908-12.319-19.201.383-7.846 5.617-14.927 13.021-17.606l1.022-.32c2.489-.7 4.021-3.316 3.446-5.868-1.468-6.57-3.766-13.013-6.766-19.074zM97.412 115.1c-15.447 5.613-32.553-2.424-38.17-17.862-5.617-15.437 2.425-32.533 17.872-38.146 15.447-5.614 32.553 2.424 38.17 17.86 5.553 15.438-2.426 32.598-17.872 38.148z" fill="url(#paint0_linear_2618_221)"/></svg><svg viewBox="0 0 24 24" id="icon-2-1" xmlns="http://www.w3.org/2000/svg"><path d="M15.889 3H9.778L7 13.254h3.889L9.222 22 17 9.635h-3.889L15.89 3z"/></svg><svg viewBox="0 0 24 24" id="icon-2-2" xmlns="http://www.w3.org/2000/svg"><path d="M21.167 16.353c0-1.159-.237-3.189-.698-4.259a8.81 8.81 0 00-1.987-2.863 9.198 9.198 0 00-2.974-1.912 9.43 9.43 0 00-1.675-.494m7.334 9.528H22a1 1 0 011 1V18a1 1 0 01-1 1H2a1 1 0 01-1-1v-.647a1 1 0 011-1h.833m18.334 0H2.833m0 0c0-1.159.237-3.189.698-4.259a8.81 8.81 0 011.987-2.863A9.198 9.198 0 018.492 7.32a9.431 9.431 0 011.675-.494m0 0v3.234a1 1 0 001 1h1.666a1 1 0 001-1V6.825m-3.666 0v-.992a1.833 1.833 0 013.667 0v.992"/></svg><svg viewBox="0 0 24 24" id="icon-2-3" xmlns="http://www.w3.org/2000/svg"><path d="M12.428 15a3 3 0 100-6 3 3 0 000 6z"/><path d="M14.193 2.152C13.826 2 13.36 2 12.428 2c-.932 0-1.398 0-1.765.152A2 2 0 009.58 3.235c-.092.223-.129.484-.143.863a1.62 1.62 0 01-.79 1.353 1.62 1.62 0 01-1.567.008c-.336-.178-.579-.276-.82-.308a2 2 0 00-1.478.396c-.314.243-.548.646-1.014 1.453-.466.807-.7 1.21-.75 1.605a2 2 0 00.395 1.479c.148.192.355.353.676.555.473.297.777.803.777 1.361 0 .558-.304 1.064-.777 1.36-.32.203-.529.364-.676.556a2 2 0 00-.396 1.479c.052.394.285.798.75 1.605.467.807.7 1.21 1.015 1.453a2 2 0 001.48.396c.24-.032.482-.13.818-.308a1.62 1.62 0 011.567.008c.483.28.77.795.79 1.353.014.38.05.64.143.863a2.001 2.001 0 001.083 1.083c.367.152.833.152 1.765.152.932 0 1.398 0 1.765-.152a2.001 2.001 0 001.083-1.083c.092-.223.13-.483.143-.863.02-.558.307-1.074.79-1.353a1.62 1.62 0 011.567-.008c.336.178.58.276.82.308a1.998 1.998 0 001.478-.396c.315-.242.548-.646 1.014-1.453.466-.807.7-1.21.751-1.605a2 2 0 00-.396-1.479c-.148-.192-.355-.353-.676-.555A1.62 1.62 0 0119.99 12c0-.558.304-1.064.777-1.36.321-.203.53-.364.676-.556a2 2 0 00.396-1.479c-.052-.394-.285-.798-.75-1.605-.467-.807-.7-1.21-1.015-1.453a2.001 2.001 0 00-1.479-.396c-.24.032-.483.13-.82.308a1.62 1.62 0 01-1.566-.008 1.62 1.62 0 01-.79-1.353c-.014-.38-.05-.64-.143-.863a2 2 0 00-1.083-1.083z"/></svg><svg viewBox="0 0 24 24" id="icon-2-4" xmlns="http://www.w3.org/2000/svg"><path d="M8 12.5h6.25a2.75 2.75 0 100-5.5h-3.796v8.25m0 2.75v-2.75M8 15.25h2.454m0 0h3.273"/><path d="M22.5 12a10.5 10.5 0 11-21 0 10.5 10.5 0 0121 0z"/></svg><svg viewBox="0 0 32 32" id="icon-arrow-left" xmlns="http://www.w3.org/2000/svg"><path d="M14.121 9.707l-1.414-1.414L5 16l7.707 7.707 1.414-1.414L8.828 17h17.586v-2H8.828l5.293-5.293z"/></svg><svg fill="none" viewBox="0 0 35 34" id="icon-dowload" xmlns="http://www.w3.org/2000/svg"><path fill-rule="evenodd" clip-rule="evenodd" d="M9.188 17.391l.624-.78L17 22.36l7.188-5.75.624.78L17 23.641l-7.813-6.25z" fill="#7C76B7"/><path fill-rule="evenodd" clip-rule="evenodd" d="M17.5 8.86v13.5h-1V8.86h1zM24.5 26h-15v-1h15v1z" fill="#7C76B7"/></svg><svg fill="none" viewBox="0 0 35 34" id="icon-download" xmlns="http://www.w3.org/2000/svg"><path fill-rule="evenodd" clip-rule="evenodd" d="M9.188 17.391l.624-.78L17 22.36l7.188-5.75.624.78L17 23.641l-7.813-6.25z" fill="#7C76B7"/><path fill-rule="evenodd" clip-rule="evenodd" d="M17.5 8.86v13.5h-1V8.86h1zM24.5 26h-15v-1h15v1z" fill="#7C76B7"/></svg><svg fill="none" viewBox="0 0 18 18" id="icon-link" xmlns="http://www.w3.org/2000/svg"><path d="M15.464 6.165l-3.859 3.86a3.065 3.065 0 01-4.328 0 .47.47 0 10-.666.666 3.985 3.985 0 002.83 1.17c1.024 0 2.05-.39 2.83-1.17l3.86-3.86a3.975 3.975 0 001.167-2.83 3.975 3.975 0 00-1.168-2.83 4.006 4.006 0 00-5.66 0L7.519 4.12a.47.47 0 10.666.667l2.951-2.951A3.037 3.037 0 0113.3.945c.821 0 1.589.317 2.164.892.575.575.892 1.343.892 2.164 0 .821-.317 1.589-.892 2.164z" fill="#7C76B7"/><path d="M9.325 12.976a.47.47 0 00-.665 0l-2.498 2.497a3.037 3.037 0 01-2.164.892c-.82 0-1.588-.317-2.164-.892a3.065 3.065 0 010-4.328l3.633-3.632a3.065 3.065 0 014.328 0 .47.47 0 10.666-.666 4.006 4.006 0 00-5.66 0l-3.633 3.632A3.975 3.975 0 000 13.31c0 1.072.415 2.077 1.168 2.83a3.976 3.976 0 002.83 1.168 3.974 3.974 0 002.83-1.168l2.497-2.497a.47.47 0 000-.666z" fill="#7C76B7"/></svg><svg viewBox="0 0 32 32" id="menu" xmlns="http://www.w3.org/2000/svg"><path d="M4 8h24v2H4V8zM4 15h24v2H4v-2zM28 22H4v2h24v-2z"/></svg><svg fill="none" viewBox="0 0 32 32" id="modal-close" xmlns="http://www.w3.org/2000/svg"><rect width="32" height="32" rx="2" fill="#8E00FE"/><mask id="aza" style="mask-type:alpha" maskUnits="userSpaceOnUse" x="4" y="4" width="24" height="24"><path d="M14.586 16L4.293 26.293l1.414 1.414L16 17.414l10.293 10.293 1.414-1.414L17.414 16 27.707 5.707l-1.414-1.414L16 14.586 5.707 4.293 4.293 5.707 14.586 16z" fill="#000"/></mask><g mask="url(#aza)"><path fill="#fff" d="M32 0v32H0V0z"/></g></svg><svg fill="none" viewBox="0 0 72 39" id="pointer-1" xmlns="http://www.w3.org/2000/svg"><path d="M.333 36a2.667 2.667 0 105.334 0 2.667 2.667 0 00-5.334 0zM3 36.5h9.908v-1H3v1zM21.408 28V9h-1v19h1zm7.5-26.5H72v-1H28.908v1zm-7.5 7.5a7.5 7.5 0 017.5-7.5v-1a8.5 8.5 0 00-8.5 8.5h1zm-8.5 27.5a8.5 8.5 0 008.5-8.5h-1a7.5 7.5 0 01-7.5 7.5v1z" fill="#8E00FE"/></svg><svg fill="none" viewBox="0 0 132 39" id="pointer-2" xmlns="http://www.w3.org/2000/svg"><path d="M.333 36a2.667 2.667 0 105.334 0 2.667 2.667 0 00-5.334 0zM44.481 1V.5 1zM3 36.5h25.48v-1H3v1zM36.98 28V9h-1v19h1zm7.5-26.5H132v-1H44.48v1zM36.98 9a7.5 7.5 0 017.5-7.5v-1a8.5 8.5 0 00-8.5 8.5h1zm-8.5 27.5a8.5 8.5 0 008.5-8.5h-1a7.5 7.5 0 01-7.5 7.5v1z" fill="#8E00FE"/></svg><svg fill="none" viewBox="0 0 187 39" id="pointer-3" xmlns="http://www.w3.org/2000/svg"><path d="M.333 36a2.667 2.667 0 105.334 0 2.667 2.667 0 00-5.334 0zM58.756 1v.5V1zM3 36.5h39.756v-1H3v1zM51.256 28V9h-1v19h1zm7.5-26.5H187v-1H58.756v1zm-7.5 7.5a7.5 7.5 0 017.5-7.5v-1a8.5 8.5 0 00-8.5 8.5h1zm-8.5 27.5a8.5 8.5 0 008.5-8.5h-1a7.5 7.5 0 01-7.5 7.5v1z" fill="#8E00FE"/></svg><svg fill="none" viewBox="0 0 265 39" id="pointer-4" xmlns="http://www.w3.org/2000/svg"><path d="M.333 36a2.667 2.667 0 105.334 0 2.667 2.667 0 00-5.334 0zM3 36.5h60v-1H3v1zM71.5 28V9h-1v19h1zM79 1.5h186v-1H79v1zM71.5 9A7.5 7.5 0 0179 1.5v-1A8.5 8.5 0 0070.5 9h1zM63 36.5a8.5 8.5 0 008.5-8.5h-1a7.5 7.5 0 01-7.5 7.5v1z" fill="#8E00FE"/></svg><svg fill="none" viewBox="0 0 361 43" id="pointer-5" xmlns="http://www.w3.org/2000/svg"><path d="M.333 39.5a2.667 2.667 0 105.334 0 2.667 2.667 0 00-5.334 0zM3 40h59v-1H3v1zm67.5-8.5V9h-1v22.5h1zm7.5-30h283v-1H78v1zM70.5 9A7.5 7.5 0 0178 1.5v-1A8.5 8.5 0 0069.5 9h1zM62 40a8.5 8.5 0 008.5-8.5h-1A7.5 7.5 0 0162 39v1z" fill="#8E00FE"/></svg><svg fill="none" viewBox="0 0 36 36" id="slider-btn" xmlns="http://www.w3.org/2000/svg"><path d="M10.445 0h15.092C32.092 0 36 3.906 36 10.458v15.066C36 32.094 32.092 36 25.537 36H10.463C3.908 36 0 32.094 0 25.542V10.458C-.018 3.906 3.89 0 10.445 0zm4.322 23.4a1.358 1.358 0 000 1.908c.27.27.613.396.955.396.342 0 .684-.126.954-.396l6.358-6.354a1.358 1.358 0 000-1.908l-6.358-6.354a1.36 1.36 0 00-1.909 0 1.358 1.358 0 000 1.908L20.17 18l-5.403 5.4z" fill="currentColor"/></svg><svg fill="none" viewBox="0 0 229 38" id="tab-vertical-help" xmlns="http://www.w3.org/2000/svg"><path opacity=".5" d="M56 7.5a.5.5 0 000-1v1zM23.646 37.354a.5.5 0 00.708 0l3.181-3.182a.5.5 0 10-.707-.707L24 36.293l-2.828-2.828a.5.5 0 10-.707.707l3.181 3.182zM56 6.5c-10.177 0-18.312 3.018-23.905 8.37C26.5 20.223 23.5 27.862 23.5 37h1c0-8.913 2.921-16.274 8.287-21.408C38.154 10.456 46.02 7.5 56 7.5v-1zM81.898 1.2V11h-1.022V2.096h-6.202V11h-1.022V1.2h8.246zm9.509 6.426h-6.16c.056.765.35 1.386.882 1.862.532.467 1.204.7 2.016.7.457 0 .877-.08 1.26-.238.382-.168.714-.41.994-.728l.56.644c-.327.392-.738.69-1.232.896a4.092 4.092 0 01-1.61.308c-.756 0-1.428-.159-2.016-.476a3.546 3.546 0 01-1.358-1.344c-.327-.57-.49-1.213-.49-1.932 0-.719.154-1.363.462-1.932a3.462 3.462 0 011.288-1.33 3.634 3.634 0 011.848-.476c.681 0 1.292.159 1.834.476.541.317.966.76 1.274 1.33.308.56.462 1.204.462 1.932l-.014.308zM87.85 4.434c-.71 0-1.307.229-1.792.686-.476.448-.747 1.036-.812 1.764h5.222c-.066-.728-.34-1.316-.826-1.764-.476-.457-1.074-.686-1.792-.686zm9.564-.854c.69 0 1.316.159 1.876.476.56.308.999.747 1.316 1.316.317.57.476 1.218.476 1.946 0 .737-.159 1.39-.476 1.96a3.4 3.4 0 01-1.316 1.33c-.55.308-1.176.462-1.876.462a3.58 3.58 0 01-1.624-.364 3.135 3.135 0 01-1.176-1.092v4.102h-.994V3.636h.952v1.456c.299-.485.69-.859 1.176-1.12a3.511 3.511 0 011.666-.392zm-.07 6.608c.513 0 .98-.117 1.4-.35.42-.243.747-.583.98-1.022.243-.439.364-.938.364-1.498s-.121-1.055-.364-1.484a2.522 2.522 0 00-.98-1.022 2.748 2.748 0 00-1.4-.364c-.523 0-.994.121-1.414.364a2.65 2.65 0 00-.98 1.022c-.233.43-.35.924-.35 1.484 0 .56.117 1.06.35 1.498.243.439.57.78.98 1.022.42.233.891.35 1.414.35zm12.314-2.562h-6.16c.056.765.35 1.386.882 1.862.532.467 1.204.7 2.016.7.457 0 .877-.08 1.26-.238.382-.168.714-.41.994-.728l.56.644a3.15 3.15 0 01-1.232.896 4.094 4.094 0 01-1.61.308c-.756 0-1.428-.159-2.016-.476a3.538 3.538 0 01-1.358-1.344c-.327-.57-.49-1.213-.49-1.932 0-.719.154-1.363.462-1.932a3.454 3.454 0 011.288-1.33 3.63 3.63 0 011.848-.476c.681 0 1.292.159 1.834.476.541.317.966.76 1.274 1.33.308.56.462 1.204.462 1.932l-.014.308zm-3.556-3.192c-.71 0-1.307.229-1.792.686-.476.448-.747 1.036-.812 1.764h5.222c-.066-.728-.341-1.316-.826-1.764-.476-.457-1.074-.686-1.792-.686zm8.444 3.29h-1.68V11h-.994V3.636h.994V6.87h1.694l2.59-3.234h1.078l-2.898 3.57L118.439 11h-1.176l-2.716-3.276zm11.481-4.088V11h-.994V4.518h-3.528l-.098 1.82c-.075 1.53-.252 2.707-.532 3.528-.28.821-.78 1.232-1.498 1.232-.196 0-.434-.037-.714-.112l.07-.854c.168.037.284.056.35.056.382 0 .672-.177.868-.532.196-.355.326-.793.392-1.316a31.49 31.49 0 00.168-2.072l.126-2.632h5.39zm9.153-.056c.691 0 1.312.159 1.862.476a3.4 3.4 0 011.316 1.33c.318.57.476 1.213.476 1.932 0 .719-.158 1.363-.476 1.932a3.5 3.5 0 01-1.316 1.344c-.55.317-1.171.476-1.862.476a3.76 3.76 0 01-1.778-.42 3.622 3.622 0 01-1.302-1.19 3.73 3.73 0 01-.574-1.736h-1.68V11h-.994V3.636h.994v3.178h1.694a3.755 3.755 0 01.602-1.68 3.465 3.465 0 011.288-1.148 3.75 3.75 0 011.75-.406zm0 6.622c.504 0 .957-.121 1.358-.364.411-.243.733-.583.966-1.022.234-.439.35-.938.35-1.498s-.116-1.06-.35-1.498a2.452 2.452 0 00-.966-1.008 2.572 2.572 0 00-1.358-.364c-.504 0-.961.121-1.372.364a2.49 2.49 0 00-.952 1.008c-.233.439-.35.938-.35 1.498s.117 1.06.35 1.498c.234.439.551.78.952 1.022.411.243.868.364 1.372.364zm11.344-6.566V11h-.994V7.934c-.85.373-1.685.56-2.506.56-.887 0-1.578-.2-2.072-.602-.495-.41-.742-1.022-.742-1.834V3.636h.994v2.366c0 .55.177.97.532 1.26.354.28.844.42 1.47.42.69 0 1.465-.182 2.324-.546v-3.5h.994zm5.357-.056c.961 0 1.698.243 2.212.728.513.476.77 1.185.77 2.128V11h-.952V9.852a2.276 2.276 0 01-.994.896c-.43.215-.943.322-1.54.322-.822 0-1.475-.196-1.96-.588-.486-.392-.728-.91-.728-1.554 0-.625.224-1.13.672-1.512.457-.383 1.18-.574 2.17-.574h2.338v-.448c0-.635-.178-1.115-.532-1.442-.355-.336-.873-.504-1.554-.504-.467 0-.915.08-1.344.238-.43.15-.798.36-1.106.63l-.448-.742c.373-.317.821-.56 1.344-.728a5.102 5.102 0 011.652-.266zm-.35 6.706c.56 0 1.04-.126 1.442-.378.401-.261.7-.635.896-1.12V7.584h-2.31c-1.26 0-1.89.439-1.89 1.316 0 .43.163.77.49 1.022.326.243.784.364 1.372.364zm5.978-6.65h.994v5.852l4.914-5.852h.882V11h-.994V5.148l-4.9 5.852h-.896V3.636zm3.346-1.064c-.635 0-1.139-.159-1.512-.476-.374-.317-.565-.765-.574-1.344h.714c.009.364.14.658.392.882.252.215.578.322.98.322.401 0 .728-.107.98-.322a1.15 1.15 0 00.406-.882h.714c-.01.579-.206 1.027-.588 1.344-.374.317-.878.476-1.512.476zm14.646 4.62c.999.233 1.498.835 1.498 1.806 0 .644-.238 1.139-.714 1.484s-1.185.518-2.128.518h-3.346V3.636h3.248c.84 0 1.498.163 1.974.49.476.327.714.793.714 1.4 0 .401-.112.747-.336 1.036-.214.28-.518.49-.91.63zm-3.724-.28h2.212c.57 0 1.004-.107 1.302-.322.308-.215.462-.527.462-.938 0-.41-.154-.719-.462-.924-.298-.205-.732-.308-1.302-.308h-2.212v2.492zm2.338 3.304c.635 0 1.111-.103 1.428-.308.318-.205.476-.527.476-.966 0-.439-.144-.76-.434-.966-.289-.215-.746-.322-1.372-.322h-2.436v2.562h2.338zm7.888-2.492h-1.68V11h-.994V3.636h.994V6.87h1.694l2.59-3.234h1.078l-2.898 3.57L185.896 11h-1.176l-2.716-3.276zm11.481-4.088V11h-.994V4.518h-3.528l-.098 1.82c-.075 1.53-.252 2.707-.532 3.528-.28.821-.78 1.232-1.498 1.232-.196 0-.434-.037-.714-.112l.07-.854c.168.037.284.056.35.056.382 0 .672-.177.868-.532.196-.355.326-.793.392-1.316a31.49 31.49 0 00.168-2.072l.126-2.632h5.39zm5.359-.056c.962 0 1.699.243 2.212.728.514.476.77 1.185.77 2.128V11h-.952V9.852a2.27 2.27 0 01-.994.896c-.429.215-.942.322-1.54.322-.821 0-1.474-.196-1.96-.588-.485-.392-.728-.91-.728-1.554 0-.625.224-1.13.672-1.512.458-.383 1.181-.574 2.17-.574h2.338v-.448c0-.635-.177-1.115-.532-1.442-.354-.336-.872-.504-1.554-.504-.466 0-.914.08-1.344.238-.429.15-.798.36-1.106.63l-.448-.742c.374-.317.822-.56 1.344-.728a5.111 5.111 0 011.652-.266zm-.35 6.706c.56 0 1.041-.126 1.442-.378.402-.261.7-.635.896-1.12V7.584h-2.31c-1.26 0-1.89.439-1.89 1.316 0 .43.164.77.49 1.022.327.243.784.364 1.372.364zm13.161-.154v2.646h-.938V11h-6.594v1.778h-.938v-2.646h.42c.494-.028.83-.392 1.008-1.092.177-.7.298-1.68.364-2.94l.098-2.464h5.432v6.496h1.148zm-5.768-3.976c-.047 1.045-.136 1.909-.266 2.59-.131.672-.364 1.134-.7 1.386h4.592V4.518h-3.542l-.084 1.638zm10.379 1.568h-1.68V11h-.994V3.636h.994V6.87h1.694l2.59-3.234h1.078l-2.898 3.57L220.158 11h-1.176l-2.716-3.276zm5.461-4.088h.994v5.852l4.914-5.852h.882V11h-.994V5.148l-4.9 5.852h-.896V3.636z" fill="#1D1D1B"/></svg></svg>